<svg xmlns="http://www.w3.org/2000/svg" xmlns:xlink="http://www.w3.org/1999/xlink" width="360" height="640" viewBox="0 0 360 640">
  <defs>
    <clipPath id="clip-about">
      <rect width="360" height="640"/>
    </clipPath>
  </defs>
  <g id="about" clip-path="url(#clip-about)">
    <rect width="360" height="640" fill="#fff"/>
    <rect id="Rectangle_615" data-name="Rectangle 615" width="360" height="68" transform="translate(-1)" fill="#c92815"/>
    <g id="back" transform="translate(15.9 -11.063)">
      <g id="Group_1964" data-name="Group 1964" transform="translate(0 31.842)">
        <path id="Path_445" data-name="Path 445" d="M34.87,43.194a3.1,3.1,0,0,0-.459-.029H8.237l.571-.227a5.388,5.388,0,0,0,1.5-.906l7.34-6.263a2.1,2.1,0,0,0,.385-3,2.962,2.962,0,0,0-3.71-.489,2.6,2.6,0,0,0-.272.195L.778,43.8a2.038,2.038,0,0,0,0,3.2l0,0L14.051,58.33a2.987,2.987,0,0,0,3.754,0,2.426,2.426,0,0,0,.228-.222,2.1,2.1,0,0,0-.385-3l-7.326-6.274A5.357,5.357,0,0,0,8.994,48L8.2,47.7H34.265a2.689,2.689,0,0,0,2.8-1.9A2.336,2.336,0,0,0,34.87,43.194Z" transform="translate(0 -31.842)" fill="#fff"/>
      </g>
    </g>
    <text id="About-2" data-name="About" transform="translate(180 50)" fill="#f8f4f7" font-size="37" font-family="SegoeUI, Segoe UI"><tspan x="-50.387" y="0">About</tspan></text>
    <text id="Gift_Gallery_App" data-name="Gift Gallery App" transform="translate(180 138)" fill="#c92815" font-size="32" font-family="SegoeUI, Segoe UI"><tspan x="-111.719" y="0">Gift Gallery App</tspan></text>
    <text id="Version" transform="translate(180 182)" fill="rgba(0,5,7,0.99)" font-size="32" font-family="SegoeUI, Segoe UI"><tspan x="-51.945" y="0">Version</tspan></text>
    <text id="Build" transform="translate(180 225)" fill="rgba(0,5,7,0.99)" font-size="32" font-family="SegoeUI, Segoe UI"><tspan x="-35.398" y="0">Build</tspan></text>
    <line id="Line_65" data-name="Line 65" x2="359" transform="translate(1.5 252.5)" fill="none" stroke="#c92815" stroke-width="1"/>
    <line id="Line_65-2" data-name="Line 65" x2="359" transform="translate(1.5 317.5)" fill="none" stroke="#c92815" stroke-width="1"/>
    <line id="Line_65-3" data-name="Line 65" x2="359" transform="translate(0.5 391.5)" fill="none" stroke="#c92815" stroke-width="1"/>
    <text id="Terms_of_Service" data-name="Terms of Service" transform="translate(109 300)" fill="#c92815" font-size="26" font-family="SegoeUI, Segoe UI"><tspan x="-92.784" y="0">Terms of Service</tspan></text>
    <text id="Open_Source_Libraries" data-name="Open Source Libraries" transform="translate(142 365)" fill="#c92815" font-size="26" font-family="SegoeUI, Segoe UI"><tspan x="-125.95" y="0">Open Source Libraries</tspan></text>
    <g id="down-arrow" transform="translate(274.978 367.686) rotate(-90)">
      <g id="Group_2058" data-name="Group 2058" transform="translate(0 48.907)">
        <path id="Path_579" data-name="Path 579" d="M22.556,48.907l-9.771,9.771L3.015,48.907,0,51.922,12.786,64.708,25.572,51.922Z" transform="translate(0 -48.907)" fill="#c92815"/>
      </g>
    </g>
    <g id="down-arrow-2" data-name="down-arrow" transform="translate(274.979 302.686) rotate(-90)">
      <g id="Group_2058-2" data-name="Group 2058" transform="translate(0 48.907)">
        <path id="Path_579-2" data-name="Path 579" d="M22.556,48.907l-9.771,9.771L3.015,48.907,0,51.922,12.786,64.708,25.572,51.922Z" transform="translate(0 -48.907)" fill="#c92815"/>
      </g>
    </g>
  </g>
</svg>
