<svg xmlns="http://www.w3.org/2000/svg" xmlns:xlink="http://www.w3.org/1999/xlink" width="360" height="640" viewBox="0 0 360 640">
  <defs>
    <clipPath id="clip-address_book">
      <rect width="360" height="640"/>
    </clipPath>
  </defs>
  <g id="address_book" data-name="address book" clip-path="url(#clip-address_book)">
    <rect width="360" height="640" fill="#fff"/>
    <rect id="Rectangle_615" data-name="Rectangle 615" width="360" height="68" transform="translate(-1)" fill="#c92815"/>
    <g id="back" transform="translate(15.9 -11.063)">
      <g id="Group_1964" data-name="Group 1964" transform="translate(0 31.842)">
        <path id="Path_445" data-name="Path 445" d="M34.87,43.194a3.1,3.1,0,0,0-.459-.029H8.237l.571-.227a5.388,5.388,0,0,0,1.5-.906l7.34-6.263a2.1,2.1,0,0,0,.385-3,2.962,2.962,0,0,0-3.71-.489,2.6,2.6,0,0,0-.272.195L.778,43.8a2.038,2.038,0,0,0,0,3.2l0,0L14.051,58.33a2.987,2.987,0,0,0,3.754,0,2.426,2.426,0,0,0,.228-.222,2.1,2.1,0,0,0-.385-3l-7.326-6.274A5.357,5.357,0,0,0,8.994,48L8.2,47.7H34.265a2.689,2.689,0,0,0,2.8-1.9A2.336,2.336,0,0,0,34.87,43.194Z" transform="translate(0 -31.842)" fill="#f8f4f7"/>
      </g>
    </g>
    <text id="Address_Book-2" data-name="Address Book" transform="translate(195 50)" fill="#f8f4f7" font-size="37" font-family="SegoeUI, Segoe UI"><tspan x="-112.075" y="0">Address Book</tspan></text>
    <line id="Line_58" data-name="Line 58" x2="359" transform="translate(0.5 150.5)" fill="none" stroke="#c92815" stroke-width="1"/>
    <line id="Line_59" data-name="Line 59" x2="359" transform="translate(1.5 234.5)" fill="none" stroke="#c92815" stroke-width="1"/>
    <line id="Line_60" data-name="Line 60" x2="359" transform="translate(1.5 311.5)" fill="none" stroke="#c92815" stroke-width="1"/>
    <g id="Group_2178" data-name="Group 2178">
      <text id="Office_Address" data-name="Office Address" transform="translate(146 218)" fill="#c92815" font-size="29" font-family="SegoeUI, Segoe UI"><tspan x="-93.131" y="0">Office Address</tspan></text>
      <g id="Flat" transform="translate(4 178)">
        <rect id="Rectangle_616" data-name="Rectangle 616" width="11" height="25" rx="1" transform="translate(34 22)" fill="#2980b9"/>
        <rect id="Rectangle_617" data-name="Rectangle 617" width="5" height="4" rx="1" transform="translate(38 25)" fill="#9fe0f6"/>
        <rect id="Rectangle_618" data-name="Rectangle 618" width="5" height="4" rx="1" transform="translate(38 31)" fill="#9fe0f6"/>
        <rect id="Rectangle_619" data-name="Rectangle 619" width="11" height="25" rx="1" transform="translate(4 22)" fill="#2980b9"/>
        <rect id="Rectangle_620" data-name="Rectangle 620" width="4" height="4" rx="1" transform="translate(7 25)" fill="#9fe0f6"/>
        <rect id="Rectangle_621" data-name="Rectangle 621" width="4" height="4" rx="1" transform="translate(7 31)" fill="#9fe0f6"/>
        <rect id="Rectangle_622" data-name="Rectangle 622" width="23" height="34" rx="1" transform="translate(13 13)" fill="#3498db"/>
        <g id="Group_2024" data-name="Group 2024" transform="translate(15.5 16.25)">
          <rect id="Rectangle_623" data-name="Rectangle 623" width="4" height="5" rx="1" transform="translate(0.5 -0.25)" fill="#9fe0f6"/>
          <rect id="Rectangle_624" data-name="Rectangle 624" width="5" height="5" rx="1" transform="translate(6.5 -0.25)" fill="#9fe0f6"/>
          <rect id="Rectangle_625" data-name="Rectangle 625" width="5" height="5" rx="1" transform="translate(13.5 -0.25)" fill="#9fe0f6"/>
          <rect id="Rectangle_626" data-name="Rectangle 626" width="4" height="5" rx="1" transform="translate(0.5 5.75)" fill="#9fe0f6"/>
          <rect id="Rectangle_627" data-name="Rectangle 627" width="5" height="5" rx="1" transform="translate(6.5 5.75)" fill="#9fe0f6"/>
          <rect id="Rectangle_628" data-name="Rectangle 628" width="5" height="5" rx="1" transform="translate(13.5 5.75)" fill="#9fe0f6"/>
          <rect id="Rectangle_629" data-name="Rectangle 629" width="4" height="5" rx="1" transform="translate(0.5 11.75)" fill="#9fe0f6"/>
          <rect id="Rectangle_630" data-name="Rectangle 630" width="5" height="5" rx="1" transform="translate(6.5 11.75)" fill="#9fe0f6"/>
          <rect id="Rectangle_631" data-name="Rectangle 631" width="5" height="5" rx="1" transform="translate(13.5 11.75)" fill="#9fe0f6"/>
        </g>
        <path id="Path_550" data-name="Path 550" d="M35.75,46.5h-12a.75.75,0,0,1,0-1.5h12a.75.75,0,0,1,0,1.5Z" transform="translate(-5.25 -10.75)" fill="#2980b9"/>
        <path id="Path_551" data-name="Path 551" d="M26,46h9V57.25H26Z" transform="translate(-6 -11)" fill="#9fe0f6"/>
        <path id="Path_552" data-name="Path 552" d="M34.75,45h-9a.75.75,0,0,0-.75.75V57a.75.75,0,0,0,.75.75h9A.75.75,0,0,0,35.5,57V45.75A.75.75,0,0,0,34.75,45ZM26.5,46.5h3v9.75h-3ZM34,56.25H31V46.5h3Z" transform="translate(-5.75 -10.75)" fill="#2980b9"/>
        <path id="Path_553" data-name="Path 553" d="M46.25,61.5H2.75a.75.75,0,0,1,0-1.5h43.5a.75.75,0,0,1,0,1.5Z" transform="translate(0 -14.5)" fill="#333"/>
        <path id="Path_554" data-name="Path 554" d="M33.305,13.937a.755.755,0,0,1-.263-.048,5.885,5.885,0,0,0-4.138,0,.75.75,0,1,1-.525-1.4,7.391,7.391,0,0,1,5.192,0,.75.75,0,0,1-.263,1.453Z" transform="translate(-6.473 -2.503)" fill="#ffcc5c"/>
        <path id="Path_555" data-name="Path 555" d="M34.733,9.613a.75.75,0,0,1-.344-.084,9,9,0,0,0-8.28,0,.75.75,0,1,1-.69-1.331,10.5,10.5,0,0,1,9.66,0,.75.75,0,0,1-.346,1.415Z" transform="translate(-5.749 -1.255)" fill="#f7931e"/>
        <path id="Path_556" data-name="Path 556" d="M36.144,5.351a.75.75,0,0,1-.389-.109,11.919,11.919,0,0,0-12.406,0,.75.75,0,1,1-.778-1.283,13.416,13.416,0,0,1,13.963,0,.75.75,0,0,1-.39,1.391Z" transform="translate(-5.052)" fill="#f15a24"/>
      </g>
    </g>
    <g id="Group_2180" data-name="Group 2180">
      <text id="Home_Address" data-name="Home Address" transform="translate(147 134)" fill="#c92815" font-size="29" font-family="SegoeUI, Segoe UI"><tspan x="-94.193" y="0">Home Address</tspan></text>
      <g id="home-run" transform="translate(6.218 100.218)">
        <rect id="Rectangle_632" data-name="Rectangle 632" width="4.444" height="7.756" transform="translate(29.006 5.575)" fill="#f05540"/>
        <rect id="Rectangle_633" data-name="Rectangle 633" width="7.837" height="4.201" transform="translate(27.309 1.616)" fill="#f3705a"/>
        <path id="Path_557" data-name="Path 557" d="M44.8,83.036v17.856H76.472V83.036L60.636,67.2h0C54.5,73.421,51.021,76.9,44.8,83.036Z" transform="translate(-41.407 -62.11)" fill="#ffd15c"/>
        <path id="Path_558" data-name="Path 558" d="M76.553,83.036,60.717,67.2c-3.151,3.07-5.575,5.494-8,7.918L44.8,83.036v3.636L60.636,70.836,76.472,86.672v.485h0V83.036h.081Z" transform="translate(-41.407 -62.11)" fill="#f7b64c"/>
        <path id="Path_559" data-name="Path 559" d="M100.2,339.473H90.667V330.1a4.776,4.776,0,0,1,4.767-4.767h0A4.776,4.776,0,0,1,100.2,330.1Z" transform="translate(-83.799 -300.691)" fill="#415a6b"/>
        <rect id="Rectangle_634" data-name="Rectangle 634" width="12.443" height="10.907" transform="translate(19.229 24.643)" fill="#344a5e"/>
        <g id="Group_2025" data-name="Group 2025" transform="translate(20.522 25.935)">
          <rect id="Rectangle_635" data-name="Rectangle 635" width="4.282" height="8.322" fill="#8ad7f8"/>
          <rect id="Rectangle_636" data-name="Rectangle 636" width="4.282" height="8.322" transform="translate(5.575)" fill="#8ad7f8"/>
        </g>
        <path id="Path_560" data-name="Path 560" d="M38.055,17.613,21.169.727a2.636,2.636,0,0,0-3.636,0L.727,17.613a2.636,2.636,0,0,0,0,3.636,2.636,2.636,0,0,0,3.636,0L19.391,6.221,34.419,21.249a2.571,2.571,0,0,0,3.636-3.636Z" fill="#f3705a"/>
      </g>
    </g>
    <path id="plus" d="M23.587,10.637H15.725a.463.463,0,0,1-.462-.462V2.312a2.312,2.312,0,0,0-4.625,0v7.862a.463.463,0,0,1-.462.462H2.312a2.312,2.312,0,0,0,0,4.625h7.862a.463.463,0,0,1,.462.462v7.862a2.312,2.312,0,0,0,4.625,0V15.725a.463.463,0,0,1,.462-.462h7.862a2.312,2.312,0,0,0,0-4.625Zm0,0" transform="translate(317 113)" fill="#c92815"/>
    <path id="plus-2" data-name="plus" d="M23.587,10.637H15.725a.463.463,0,0,1-.462-.462V2.312a2.312,2.312,0,0,0-4.625,0v7.862a.463.463,0,0,1-.462.462H2.312a2.312,2.312,0,0,0,0,4.625h7.862a.463.463,0,0,1,.462.462v7.862a2.312,2.312,0,0,0,4.625,0V15.725a.463.463,0,0,1,.462-.462h7.862a2.312,2.312,0,0,0,0-4.625Zm0,0" transform="translate(317 196)" fill="#c92815"/>
    <path id="plus-3" data-name="plus" d="M23.587,10.637H15.725a.463.463,0,0,1-.462-.462V2.312a2.312,2.312,0,0,0-4.625,0v7.862a.463.463,0,0,1-.462.462H2.312a2.312,2.312,0,0,0,0,4.625h7.862a.463.463,0,0,1,.462.462v7.862a2.312,2.312,0,0,0,4.625,0V15.725a.463.463,0,0,1,.462-.462h7.862a2.312,2.312,0,0,0,0-4.625Zm0,0" transform="translate(317 270)" fill="#c92815"/>
    <g id="Group_2179" data-name="Group 2179">
      <text id="Other_Address" data-name="Other Address" transform="translate(145 295)" fill="#c92815" font-size="29" font-family="SegoeUI, Segoe UI"><tspan x="-92.006" y="0">Other Address</tspan></text>
      <g id="pin" transform="translate(-49.991 263.787)">
        <g id="Group_2026" data-name="Group 2026" transform="translate(61.043 0)">
          <path id="Path_561" data-name="Path 561" d="M90.177,10.2A14.536,14.536,0,0,0,80.711.735,16.125,16.125,0,0,0,75.978,0a14.646,14.646,0,0,0-8.846,2.918,14.952,14.952,0,0,0-6.089,12.017A14.8,14.8,0,0,0,64.03,23.9L75.978,39.213,87.925,23.9A15.114,15.114,0,0,0,90.177,10.2Zm-14.2,12.775a8.042,8.042,0,1,1,8.042-8.042A8.051,8.051,0,0,1,75.978,22.976Z" transform="translate(-61.043 0)" fill="#ff3636"/>
        </g>
        <path id="Path_562" data-name="Path 562" d="M267.991,23.9,256.043,39.213V22.976a8.042,8.042,0,0,0,0-16.083V0a16.127,16.127,0,0,1,4.733.735,14.536,14.536,0,0,1,9.466,9.466A15.114,15.114,0,0,1,267.991,23.9Z" transform="translate(-180.065 0)" fill="#f40000"/>
      </g>
    </g>
  </g>
</svg>
