<svg xmlns="http://www.w3.org/2000/svg" xmlns:xlink="http://www.w3.org/1999/xlink" width="360" height="640" viewBox="0 0 360 640">
  <defs>
    <clipPath id="clip-card">
      <rect width="360" height="640"/>
    </clipPath>
  </defs>
  <g id="card" clip-path="url(#clip-card)">
    <rect width="360" height="640" fill="#fff"/>
    <rect id="Rectangle_615" data-name="Rectangle 615" width="360" height="68" transform="translate(-1)" fill="#c92815"/>
    <g id="back" transform="translate(15.9 -11.063)">
      <g id="Group_1964" data-name="Group 1964" transform="translate(0 31.842)">
        <path id="Path_445" data-name="Path 445" d="M34.87,43.194a3.1,3.1,0,0,0-.459-.029H8.237l.571-.227a5.388,5.388,0,0,0,1.5-.906l7.34-6.263a2.1,2.1,0,0,0,.385-3,2.962,2.962,0,0,0-3.71-.489,2.6,2.6,0,0,0-.272.195L.778,43.8a2.038,2.038,0,0,0,0,3.2l0,0L14.051,58.33a2.987,2.987,0,0,0,3.754,0,2.426,2.426,0,0,0,.228-.222,2.1,2.1,0,0,0-.385-3l-7.326-6.274A5.357,5.357,0,0,0,8.994,48L8.2,47.7H34.265a2.689,2.689,0,0,0,2.8-1.9A2.336,2.336,0,0,0,34.87,43.194Z" transform="translate(0 -31.842)" fill="#fff"/>
      </g>
    </g>
    <text id="Payment" transform="translate(180 48)" fill="#f8f4f7" font-size="34" font-family="SegoeUI, Segoe UI"><tspan x="-64.729" y="0">Payment</tspan></text>
    <text id="Card-2" data-name="Card" transform="translate(53 134)" fill="#c92815" font-size="26" font-family="SegoeUI, Segoe UI"><tspan x="-26.838" y="0">Card</tspan></text>
    <g id="Group_2182" data-name="Group 2182" transform="translate(-82 -99)">
      <text id="Card_Number" data-name="Card Number" transform="translate(155 299)" fill="#707070" font-size="19" font-family="SegoeUI, Segoe UI"><tspan x="-56.736" y="0">Card Number</tspan></text>
      <path id="Path_634" data-name="Path 634" d="M0,0H220.1" transform="translate(98.5 308.5)" fill="none" stroke="#707070" stroke-width="1"/>
    </g>
    <g id="Group_2183" data-name="Group 2183" transform="translate(138 -99)">
      <text id="Expiry" transform="translate(155 299)" fill="#707070" font-size="19" font-family="SegoeUI, Segoe UI"><tspan x="-24.951" y="0">Expiry</tspan></text>
      <path id="Path_633" data-name="Path 633" d="M51.244,0H129.4" transform="translate(78.5 308.5)" fill="none" stroke="#707070" stroke-width="1"/>
    </g>
    <g id="Group_2184" data-name="Group 2184" transform="translate(-82 -30)">
      <text id="Card_Holder_sName" data-name="Card Holder&apos;sName" transform="translate(181 299)" fill="#707070" font-size="19" font-family="SegoeUI, Segoe UI"><tspan x="-81.998" y="0">Card Holder&apos;sName</tspan></text>
      <path id="Path_634-2" data-name="Path 634" d="M0,0H220.1" transform="translate(98.5 308.5)" fill="none" stroke="#707070" stroke-width="1"/>
    </g>
    <g id="Group_2185" data-name="Group 2185" transform="translate(138 -30)">
      <text id="CVV" transform="translate(149 299)" fill="#707070" font-size="19" font-family="SegoeUI, Segoe UI"><tspan x="-17.683" y="0">CVV</tspan></text>
      <path id="Path_633-2" data-name="Path 633" d="M51.244,0H129.4" transform="translate(78.5 308.5)" fill="none" stroke="#707070" stroke-width="1"/>
    </g>
    <g id="Group_2199" data-name="Group 2199">
      <text id="Save_your_card_details_securely" data-name="Save your card details securely" transform="translate(194 356)" fill="rgba(0,5,7,0.99)" font-size="19" font-family="SegoeUI, Segoe UI" opacity="0.94"><tspan x="-127.948" y="0">Save your card details securely</tspan></text>
      <g id="Component_55_2" data-name="Component 55 – 2" transform="translate(31 334)">
        <g id="Rectangle_675" data-name="Rectangle 675" fill="#f8f4f7" stroke="rgba(0,5,7,0.99)" stroke-width="1">
          <rect width="27" height="27" rx="5" stroke="none"/>
          <rect x="0.5" y="0.5" width="26" height="26" rx="4.5" fill="none"/>
        </g>
      </g>
    </g>
  </g>
</svg>
