<svg xmlns="http://www.w3.org/2000/svg" xmlns:xlink="http://www.w3.org/1999/xlink" width="360" height="640" viewBox="0 0 360 640">
  <defs>
    <linearGradient id="linear-gradient" x1="0.5" y1="1" x2="0.5" gradientUnits="objectBoundingBox">
      <stop offset="0" stop-color="gray" stop-opacity="0.251"/>
      <stop offset="0.54" stop-color="gray" stop-opacity="0.122"/>
      <stop offset="1" stop-color="gray" stop-opacity="0.102"/>
    </linearGradient>
    <clipPath id="clip-forget_password">
      <rect width="360" height="640"/>
    </clipPath>
  </defs>
  <g id="forget_password" data-name="forget password" clip-path="url(#clip-forget_password)">
    <rect width="360" height="640" fill="#fff"/>
    <g id="Group_1946" data-name="Group 1946" transform="translate(0 88)">
      <g id="Group_1941" data-name="Group 1941" transform="translate(0 116)">
        <rect id="Rectangle_604" data-name="Rectangle 604" width="307" height="46" rx="23" transform="translate(27 196)" fill="#720c03" opacity="0.59"/>
        <rect id="Rectangle_603" data-name="Rectangle 603" width="307" height="46" rx="23" transform="translate(27 196)" fill="#c92c27"/>
        <rect id="Rectangle_602" data-name="Rectangle 602" width="307" height="46" rx="23" transform="translate(27 196)" fill="#c92815"/>
      </g>
      <text id="Send_Code" data-name="Send Code" transform="translate(125 345)" fill="#d4d0d3" font-size="23" font-family="SegoeUI, Segoe UI"><tspan x="0" y="0">Send Code</tspan></text>
    </g>
    <g id="Group_2218" data-name="Group 2218" transform="translate(0 125)">
      <line id="Line_43" data-name="Line 43" x2="288" transform="translate(36.5 221.5)" fill="none" stroke="#707070" stroke-width="1"/>
      <text id="Email_or_Phone_No" data-name="Email or Phone No" transform="translate(50 217)" fill="#707070" font-size="20" font-family="SegoeUI, Segoe UI"><tspan x="0" y="0">Email or Phone No</tspan></text>
    </g>
    <text id="Enter_your_registered_email_or_phone_no_to_reset_your_password" data-name="Enter your registered email or phone no
 to reset your password" transform="translate(180 245)" font-size="18" font-family="SegoeUI, Segoe UI"><tspan x="-158.823" y="0">Enter your registered email or phone no</tspan><tspan x="-93.16" y="24" xml:space="preserve"> to reset your password</tspan></text>
    <text id="Forget_Password-2" data-name="Forget Password" transform="translate(180 180)" fill="#c92815" font-size="34" font-family="SegoeUI-Bold, Segoe UI" font-weight="700"><tspan x="-132.173" y="0">Forget Password</tspan></text>
    <g id="Group_2329" data-name="Group 2329" transform="translate(-14 -14.145)">
      <g id="Group_2328" data-name="Group 2328" transform="translate(200.055 88.389)">
        <g id="Group_2327" data-name="Group 2327" transform="translate(0 12.389)">
          <path id="Path_918" data-name="Path 918" d="M238.678,110.109s-2.387-13.091-6.938-15.215a64.322,64.322,0,0,0-9.213-3.345,5.12,5.12,0,0,0-.611-.8c-1.621-1.692-2.595-1.66-2.752-1.64A8.241,8.241,0,0,1,219,88.094c0-.054-.01-.1-.014-.156l.014-.007q-.014-.152-.026-.313a8.067,8.067,0,0,0,1.81-1.318c.007.023.013.046.02.07q1.752-1.481,3.432-3.042a2.359,2.359,0,0,0,.768-1.05,1.542,1.542,0,0,0,.04-.446c.014-.321-.062-.65-.074-.975a1.117,1.117,0,0,1,.013-.154,3.578,3.578,0,0,1,.75-1.418,6.686,6.686,0,0,0,1.137-3.828,6.482,6.482,0,0,0-.268-1.928,2.381,2.381,0,0,0-1.553-1.8,6.84,6.84,0,0,0-.973-.046c-1.344-.086-2.35-1.178-3.422-1.979a9.031,9.031,0,0,0-4.477-1.738,3.587,3.587,0,0,0-1.51.1c-1.081.36-1.738,1.471-2.78,1.928a23.635,23.635,0,0,1-2.464.539,3.288,3.288,0,0,0-2.238,2.867v.163c-.013.637.214,1.285.232,1.937q0,.088,0,.177a5.831,5.831,0,0,1-.347,2.071,2.8,2.8,0,0,0-.287,1.125.753.753,0,0,0,.178.589l.259-.228a7.823,7.823,0,0,0,2.692,7.437q.015.24.029.515c.041.794.073,1.79.064,2.875l-2.526,2.322-6.494,2.946s-5.939,1.254-4.66,9.6l.611,5.181h5.422l-.012.027H210.4l0-.027h19.148l0,.027h.75v-.027ZM219.212,89.245a5.565,5.565,0,0,1,.386,1.061,4.345,4.345,0,0,1-.416-1.118l.008.014Zm-9.2,1.071q0,.153-.005.309l-.013.018a2.626,2.626,0,0,1,.018-.33Z" transform="translate(-196.151 -67.93)" fill="url(#linear-gradient)"/>
          <path id="Path_919" data-name="Path 919" d="M442.934,335.634l-1.071,10.23-5.731,1.821s-7.445-1.393-5.517-5.41c1.372-2.858,1.334-7.964,1.2-10.674-.054-1.1-.126-1.806-.126-1.806s9.748-8.516,8.945-.857a18.125,18.125,0,0,0-.078,3.549C440.914,336.26,442.934,335.634,442.934,335.634Z" transform="translate(-417.754 -311.934)" fill="#fdc2cc"/>
          <path id="Path_920" data-name="Path 920" d="M442.934,335.634l-1.071,10.23-5.731,1.821s-7.445-1.393-5.517-5.41c1.372-2.858,1.334-7.964,1.2-10.674-.054-1.1-.126-1.806-.126-1.806s9.748-8.516,8.945-.857a18.125,18.125,0,0,0-.078,3.549C440.914,336.26,442.934,335.634,442.934,335.634Z" transform="translate(-417.754 -311.934)" opacity="0.03"/>
          <path id="Path_921" data-name="Path 921" d="M465.195,325.938a18.125,18.125,0,0,0-.078,3.549,7.77,7.77,0,0,1-8.74-.886c-.054-1.1-.126-1.806-.126-1.806S466,318.279,465.195,325.938Z" transform="translate(-442.318 -309.095)" opacity="0.1"/>
          <circle id="Ellipse_173" data-name="Ellipse 173" cx="7.767" cy="7.767" r="7.767" transform="translate(11.307 5.489)" fill="#fdc2cc"/>
          <circle id="Ellipse_174" data-name="Ellipse 174" cx="7.767" cy="7.767" r="7.767" transform="translate(11.307 5.489)" opacity="0.03"/>
          <path id="Path_922" data-name="Path 922" d="M251.052,491.088H210.773L210.184,486c-1.232-8.2,4.5-9.427,4.5-9.427l6.267-2.892,2.491-2.33c-.8,3.053,5.276,9.4,5.276,9.4h0a1.458,1.458,0,0,0,.111-.115c.164-.179.555-.627,1.472-1.738.328-.4.724-.881,1.2-1.467a6.649,6.649,0,0,0,.765-6.835l-.022-.043-.032-.058a.088.088,0,0,0-.008-.014l-.006-.011,2.946,2.3s.113.03.321.089a60.879,60.879,0,0,1,8.891,3.286C248.749,478.233,251.052,491.088,251.052,491.088Z" transform="translate(-209.268 -448.909)" fill="#f10f0f"/>
          <path id="Path_923" data-name="Path 923" d="M551.8,478.685c-.482-.482-3.749-1.071-3.749-1.071.107,1.286-3.857,3.267-3.857,3.267l.295,10.07h-1.9l-.321-9.052.911-1.285h0l.111-.115a17.692,17.692,0,0,0,1.472-1.738c.328-.4.724-.881,1.2-1.467a6.649,6.649,0,0,0,.765-6.835l-.022-.043c-.013-.025-.023-.044-.032-.058a.086.086,0,0,0-.008-.014l-.006-.011h0s.964-.214,2.678,1.607a5.017,5.017,0,0,1,.589.785C551.322,474.959,552.228,479.109,551.8,478.685Z" transform="translate(-523.731 -448.772)" fill="#6c63ff"/>
          <path id="Path_924" data-name="Path 924" d="M551.8,478.685c-.482-.482-3.749-1.071-3.749-1.071.107,1.286-3.857,3.267-3.857,3.267l.295,10.07h-1.9l-.321-9.052.911-1.285h0l.111-.115a17.692,17.692,0,0,0,1.472-1.738c.328-.4.724-.881,1.2-1.467a6.649,6.649,0,0,0,.765-6.835l-.022-.043c-.013-.025-.023-.044-.032-.058a.086.086,0,0,0-.008-.014l-.006-.011h0s.964-.214,2.678,1.607a5.017,5.017,0,0,1,.589.785C551.322,474.959,552.228,479.109,551.8,478.685Z" transform="translate(-523.731 -448.772)" opacity="0.1"/>
          <path id="Path_925" data-name="Path 925" d="M313.25,703.4s2.517,5.142,2.651,8.168" transform="translate(-306.978 -669.363)" opacity="0.1"/>
          <path id="Path_926" data-name="Path 926" d="M761.023,714.31l-.723,5.222h.723Z" transform="translate(-727.327 -677.326)" opacity="0.1"/>
          <path id="Path_927" data-name="Path 927" d="M323.75,452.092l3.99-9.079a14.636,14.636,0,0,0,1.393-4.285,27.136,27.136,0,0,1,1.714-5.517s3.589-4.553,5.249-3.91-1.446,3.053-1.446,3.053,4.553,1.768,1.446,7.017-3.16,4.285-3.16,4.285l-1.527,8.436Z" transform="translate(-316.915 -409.887)" opacity="0.1"/>
          <path id="Path_928" data-name="Path 928" d="M321.75,452.073l3.99-9.079a14.635,14.635,0,0,0,1.393-4.285,21.932,21.932,0,0,1,1.265-4.4,6.742,6.742,0,0,1,1.271-2.089c1.16-1.3,3.267-3.392,4.427-2.942,1.66.643-1.446,3.053-1.446,3.053s4.553,1.768,1.446,7.017-3.16,4.285-3.16,4.285l-1.527,8.436Z" transform="translate(-315.023 -409.867)" fill="#fdc2cc"/>
          <circle id="Ellipse_175" data-name="Ellipse 175" cx="0.161" cy="0.161" r="0.161" transform="translate(21.296 8.73)" fill="#fff" opacity="0.15"/>
          <circle id="Ellipse_176" data-name="Ellipse 176" cx="0.161" cy="0.161" r="0.161" transform="translate(20.547 9.051)" fill="#fff" opacity="0.15"/>
          <path id="Path_929" data-name="Path 929" d="M404.21,87.468a22.667,22.667,0,0,0,2.379-.53c1.005-.451,1.639-1.543,2.682-1.9a3.444,3.444,0,0,1,1.457-.1,8.627,8.627,0,0,1,4.32,1.707c1.034.787,2,1.86,3.3,1.944a6.443,6.443,0,0,1,.939.045,2.324,2.324,0,0,1,1.5,1.768,6.656,6.656,0,0,1-.839,5.5,3.536,3.536,0,0,0-.724,1.393,14.1,14.1,0,0,1,.02,1.547,2.308,2.308,0,0,1-.741,1.032q-1.62,1.532-3.312,2.986c-.586-1.862.274-3.867.14-5.814a2.309,2.309,0,0,0-.99-1.944c-.626-.334-1.426-.161-2.06-.482-.707-.356-1-1.2-1.532-1.784a3.555,3.555,0,0,0-3.764-.675,10.417,10.417,0,0,0-3.321,2.278l-1.83,1.642c-.357-.4-.086-1.021.107-1.524a6.2,6.2,0,0,0,.332-2.37c-.016-.643-.237-1.277-.224-1.9A3.22,3.22,0,0,1,404.21,87.468Z" transform="translate(-390.654 -84)" opacity="0.1"/>
          <path id="Path_930" data-name="Path 930" d="M404.21,84.468a22.663,22.663,0,0,0,2.379-.53c1.005-.451,1.639-1.543,2.682-1.9a3.444,3.444,0,0,1,1.457-.1,8.627,8.627,0,0,1,4.32,1.707c1.034.787,2,1.86,3.3,1.944a6.441,6.441,0,0,1,.939.045,2.324,2.324,0,0,1,1.5,1.768,6.656,6.656,0,0,1-.839,5.5,3.537,3.537,0,0,0-.724,1.393,14.1,14.1,0,0,1,.02,1.547,2.308,2.308,0,0,1-.741,1.032q-1.62,1.532-3.312,2.986c-.586-1.862.274-3.867.14-5.814a2.309,2.309,0,0,0-.99-1.944c-.626-.334-1.426-.161-2.06-.482-.707-.356-1-1.2-1.532-1.784a3.555,3.555,0,0,0-3.764-.675,10.417,10.417,0,0,0-3.321,2.278l-1.83,1.642c-.357-.4-.086-1.021.107-1.524a6.2,6.2,0,0,0,.332-2.37c-.016-.643-.237-1.277-.224-1.9A3.22,3.22,0,0,1,404.21,84.468Z" transform="translate(-390.654 -81.161)"/>
        </g>
        <g id="Question_mark" data-name="Question mark" transform="translate(35.376)">
          <path id="Path_941" data-name="Path 941" d="M303.461,345.311a1.667,1.667,0,0,0,3.333,0,3.889,3.889,0,1,1,5.837,3.366,7.373,7.373,0,0,0-3.614,6.387v2.411a1.667,1.667,0,0,0,3.333,0v-2.411a4.03,4.03,0,0,1,1.953-3.5,7.222,7.222,0,1,0-10.842-6.25Zm0,0" transform="translate(-303.461 -338.089)"/>
          <path id="Path_942" data-name="Path 942" d="M322.721,415.25a2.592,2.592,0,1,0,2.591,2.591A2.592,2.592,0,0,0,322.721,415.25Zm0,3.333a.741.741,0,1,1,.739-.742A.743.743,0,0,1,322.721,418.583Zm0,0" transform="translate(-315.499 -393.816)"/>
        </g>
      </g>
      <g id="lock" transform="translate(152.734 59.073)">
        <path id="Path_943" data-name="Path 943" d="M259.646,24.152a26.927,26.927,0,0,1,6.446,3.862V16.845A16.865,16.865,0,0,0,249.246,0h-.259A16.863,16.863,0,0,0,232.15,16.845V28.014a26.927,26.927,0,0,1,6.446-3.862c.627-.268,1.271-.51,1.914-.727V16.845A8.491,8.491,0,0,1,249,8.36h.259a8.491,8.491,0,0,1,8.485,8.485v6.588C258.375,23.642,259.019,23.884,259.646,24.152Z" transform="translate(-225.429)" fill="#350aaf"/>
        <path id="Path_944" data-name="Path 944" d="M151.75,327.1a23.732,23.732,0,1,0,6.721-16.536A23.694,23.694,0,0,0,151.75,327.1Zm17.589-4.782a6.1,6.1,0,1,1,9.346,5.325,1.66,1.66,0,0,0-.744,1.756l1.814,8.6a.838.838,0,0,1-.819,1.012h-6.989a.835.835,0,0,1-.819-1.012l1.814-8.6a1.681,1.681,0,0,0-.744-1.764,6.091,6.091,0,0,1-2.767-4.121A6.249,6.249,0,0,1,169.339,322.319Z" transform="translate(-151.75 -278.036)" fill="#c92815"/>
      </g>
    </g>
    <g id="back" transform="translate(14.9 -14.063)">
      <g id="Group_1964" data-name="Group 1964" transform="translate(0 31.842)">
        <path id="Path_445" data-name="Path 445" d="M34.87,43.194a3.1,3.1,0,0,0-.459-.029H8.237l.571-.227a5.388,5.388,0,0,0,1.5-.906l7.34-6.263a2.1,2.1,0,0,0,.385-3,2.962,2.962,0,0,0-3.71-.489,2.6,2.6,0,0,0-.272.195L.778,43.8a2.038,2.038,0,0,0,0,3.2l0,0L14.051,58.33a2.987,2.987,0,0,0,3.754,0,2.426,2.426,0,0,0,.228-.222,2.1,2.1,0,0,0-.385-3l-7.326-6.274A5.357,5.357,0,0,0,8.994,48L8.2,47.7H34.265a2.689,2.689,0,0,0,2.8-1.9A2.336,2.336,0,0,0,34.87,43.194Z" transform="translate(0 -31.842)" fill="#c92815"/>
      </g>
    </g>
  </g>
</svg>
