<svg xmlns="http://www.w3.org/2000/svg" xmlns:xlink="http://www.w3.org/1999/xlink" width="360" height="640" viewBox="0 0 360 640">
  <defs>
    <clipPath id="clip-logout">
      <rect width="360" height="640"/>
    </clipPath>
  </defs>
  <g id="logout" clip-path="url(#clip-logout)">
    <rect width="360" height="640" fill="#fff"/>
    <rect id="Rectangle_615" data-name="Rectangle 615" width="360" height="68" transform="translate(-1)" fill="#c92815"/>
    <g id="back" transform="translate(15.9 -11.063)">
      <g id="Group_1964" data-name="Group 1964" transform="translate(0 31.842)">
        <path id="Path_445" data-name="Path 445" d="M34.87,43.194a3.1,3.1,0,0,0-.459-.029H8.237l.571-.227a5.388,5.388,0,0,0,1.5-.906l7.34-6.263a2.1,2.1,0,0,0,.385-3,2.962,2.962,0,0,0-3.71-.489,2.6,2.6,0,0,0-.272.195L.778,43.8a2.038,2.038,0,0,0,0,3.2l0,0L14.051,58.33a2.987,2.987,0,0,0,3.754,0,2.426,2.426,0,0,0,.228-.222,2.1,2.1,0,0,0-.385-3l-7.326-6.274A5.357,5.357,0,0,0,8.994,48L8.2,47.7H34.265a2.689,2.689,0,0,0,2.8-1.9A2.336,2.336,0,0,0,34.87,43.194Z" transform="translate(0 -31.842)" fill="#fff"/>
      </g>
    </g>
    <text id="Logout-2" data-name="Logout" transform="translate(180 50)" fill="#f8f4f7" font-size="37" font-family="SegoeUI, Segoe UI"><tspan x="-58.02" y="0">Logout</tspan></text>
    <g id="Group_2080" data-name="Group 2080">
      <g id="Rectangle_666" data-name="Rectangle 666" transform="translate(37 259)" fill="#fff" stroke="#707070" stroke-width="1">
        <rect width="287" height="177" stroke="none"/>
        <rect x="0.5" y="0.5" width="286" height="176" fill="none"/>
      </g>
      <line id="Line_68" data-name="Line 68" x2="287" transform="translate(36.5 371.5)" fill="none" stroke="#c92815" stroke-width="1"/>
      <line id="Line_69" data-name="Line 69" x2="287" transform="translate(36.5 297.5)" fill="none" stroke="#c92815" stroke-width="1"/>
      <text id="Are_you_sure_you_want_to_logout_" data-name="Are you sure you want to logout?" transform="translate(48 330)" fill="rgba(0,5,7,0.99)" font-size="18" font-family="SegoeUI, Segoe UI"><tspan x="0" y="0">Are you sure you want to logout?</tspan></text>
      <text id="Confirm_Logout" data-name="Confirm Logout" transform="translate(135 286)" fill="#c92815" font-size="25" font-family="SegoeUI, Segoe UI"><tspan x="-86.816" y="0">Confirm Logout</tspan></text>
      <path id="close" d="M10.442,7.851,15.3,2.994a1.373,1.373,0,0,0,0-1.943L14.652.4a1.373,1.373,0,0,0-1.943,0L7.852,5.261,2.994.4A1.373,1.373,0,0,0,1.052.4L.4,1.05a1.373,1.373,0,0,0,0,1.943L5.261,7.851.4,12.708a1.373,1.373,0,0,0,0,1.943l.648.648a1.373,1.373,0,0,0,1.943,0l4.857-4.857L12.709,15.3a1.373,1.373,0,0,0,1.943,0l.648-.648a1.373,1.373,0,0,0,0-1.943Zm0,0" transform="translate(299 268)"/>
      <g id="Group_2145" data-name="Group 2145">
        <g id="Group_1947" data-name="Group 1947" transform="translate(40 187)">
          <rect id="Rectangle_604" data-name="Rectangle 604" width="103" height="41" rx="20.5" transform="translate(27 196)" fill="#720c03" opacity="0.59"/>
          <rect id="Rectangle_603" data-name="Rectangle 603" width="103" height="41" rx="20.5" transform="translate(27 196)" fill="#c92c27"/>
          <rect id="Rectangle_602" data-name="Rectangle 602" width="103" height="41" rx="20.5" transform="translate(27 196)" fill="#c92815"/>
        </g>
        <text id="Cancel" transform="translate(119 412)" fill="#f8f4f7" font-size="19" font-family="SegoeUI, Segoe UI"><tspan x="-27.749" y="0">Cancel</tspan></text>
      </g>
      <g id="Group_2146" data-name="Group 2146">
        <g id="Group_2077" data-name="Group 2077" transform="translate(159 187)">
          <rect id="Rectangle_604-2" data-name="Rectangle 604" width="103" height="41" rx="20.5" transform="translate(27 196)" fill="#720c03" opacity="0.59"/>
          <rect id="Rectangle_603-2" data-name="Rectangle 603" width="103" height="41" rx="20.5" transform="translate(27 196)" fill="#c92c27"/>
          <rect id="Rectangle_602-2" data-name="Rectangle 602" width="103" height="41" rx="20.5" transform="translate(27 196)" fill="#c92815"/>
        </g>
        <text id="Logout-3" data-name="Logout" transform="translate(238 412)" fill="#f8f4f7" font-size="19" font-family="SegoeUI, Segoe UI"><tspan x="-29.794" y="0">Logout</tspan></text>
      </g>
    </g>
  </g>
</svg>
