<svg xmlns="http://www.w3.org/2000/svg" xmlns:xlink="http://www.w3.org/1999/xlink" width="360" height="748" viewBox="0 0 360 748">
  <defs>
    <clipPath id="clip-manage_list">
      <rect width="360" height="748"/>
    </clipPath>
  </defs>
  <g id="manage_list" data-name="manage list" clip-path="url(#clip-manage_list)">
    <rect width="360" height="748" fill="#fff"/>
    <g id="delete_button" data-name="delete button" transform="translate(7 -5)">
      <g id="Group_2117" data-name="Group 2117" transform="translate(27 500)">
        <rect id="Rectangle_604" data-name="Rectangle 604" width="238" height="41" rx="20.5" transform="translate(27 196)" fill="#720c03" opacity="0.59"/>
        <rect id="Rectangle_603" data-name="Rectangle 603" width="238" height="41" rx="20.5" transform="translate(27 196)" fill="#c92c27"/>
        <rect id="Rectangle_602" data-name="Rectangle 602" width="238" height="41" rx="20.5" transform="translate(27 196)" fill="#c92815"/>
      </g>
      <text id="Delete_List" data-name="Delete List" transform="translate(173 726)" fill="#f8f4f7" font-size="21" font-family="SegoeUI, Segoe UI"><tspan x="-48.311" y="0">Delete List</tspan></text>
    </g>
    <g id="description">
      <text id="Description-2" data-name="Description" transform="translate(16 592)" fill="rgba(0,5,7,0.99)" font-size="20" font-family="SegoeUI, Segoe UI"><tspan x="0" y="0">Description</tspan></text>
      <g id="Group_2120" data-name="Group 2120">
        <g id="Rectangle_668" data-name="Rectangle 668" transform="translate(16 597)" fill="#fff" stroke="#707070" stroke-width="1">
          <rect width="328" height="82" stroke="none"/>
          <rect x="0.5" y="0.5" width="327" height="81" fill="none"/>
        </g>
        <text id="Write_a_little_something_about_the_recipient_of_this_list._" data-name="Write a little something about the recipient of this
list. " transform="translate(24 616)" fill="#707070" font-size="14" font-family="SegoeUI, Segoe UI"><tspan x="0" y="0">Write a little something about the recipient of this</tspan><tspan x="0" y="19">list. </tspan></text>
      </g>
    </g>
    <g id="birthday">
      <g id="Rectangle_667" data-name="Rectangle 667" transform="translate(16 513)" fill="#fff" stroke="#707070" stroke-width="1">
        <rect width="328" height="44" stroke="none"/>
        <rect x="0.5" y="0.5" width="327" height="43" fill="none"/>
      </g>
      <text id="Birthday-2" data-name="Birthday" transform="translate(16 508)" fill="rgba(0,5,7,0.99)" font-size="20" font-family="SegoeUI, Segoe UI"><tspan x="0" y="0">Birthday</tspan></text>
      <text id="DD_MM_YYYY" data-name="DD/MM/YYYY" transform="translate(26 543)" fill="#707070" font-size="17" font-family="SegoeUI, Segoe UI"><tspan x="0" y="0">DD/MM/YYYY</tspan></text>
    </g>
    <g id="privacy">
      <text id="Privacy-2" data-name="Privacy" transform="translate(16 424)" fill="rgba(0,5,7,0.99)" font-size="20" font-family="SegoeUI, Segoe UI"><tspan x="0" y="0">Privacy</tspan></text>
      <g id="Component_74_1" data-name="Component 74 – 1" transform="translate(16 430)">
        <g id="Rectangle_692" data-name="Rectangle 692" fill="#fff" stroke="#707070" stroke-width="1">
          <rect width="328" height="44" stroke="none"/>
          <rect x="0.5" y="0.5" width="327" height="43" fill="none"/>
        </g>
        <g id="down-arrow" transform="translate(299.965 16.443)">
          <g id="Group_2058" data-name="Group 2058">
            <path id="Path_579" data-name="Path 579" d="M18.177,48.907,10.3,56.848,2.43,48.907,0,51.358,10.3,61.749l10.3-10.391Z" transform="translate(0 -48.907)"/>
          </g>
        </g>
        <text id="Private" transform="translate(14 31)" fill="rgba(0,5,7,0.99)" font-size="20" font-family="SegoeUI, Segoe UI"><tspan x="0" y="0">Private</tspan></text>
      </g>
    </g>
    <g id="email">
      <text id="Email-2" data-name="Email" transform="translate(16 340)" fill="rgba(0,5,7,0.99)" font-size="20" font-family="SegoeUI, Segoe UI"><tspan x="0" y="0">Email</tspan></text>
      <g id="Rectangle_644" data-name="Rectangle 644" transform="translate(16 345)" fill="#fff" stroke="#707070" stroke-width="1">
        <rect width="328" height="44" stroke="none"/>
        <rect x="0.5" y="0.5" width="327" height="43" fill="none"/>
      </g>
    </g>
    <g id="recipent">
      <text id="Recipent-2" data-name="Recipent" transform="translate(16 256)" fill="rgba(0,5,7,0.99)" font-size="20" font-family="SegoeUI, Segoe UI"><tspan x="0" y="0">Recipent</tspan></text>
      <g id="Rectangle_643" data-name="Rectangle 643" transform="translate(16 261)" fill="#fff" stroke="#707070" stroke-width="1">
        <rect width="328" height="44" stroke="none"/>
        <rect x="0.5" y="0.5" width="327" height="43" fill="none"/>
      </g>
    </g>
    <g id="list_name" data-name="list name">
      <text id="List_Name-2" data-name="List Name" transform="translate(16 172)" fill="rgba(0,5,7,0.99)" font-size="20" font-family="SegoeUI, Segoe UI"><tspan x="0" y="0">List Name</tspan></text>
      <g id="Rectangle_642" data-name="Rectangle 642" transform="translate(16 177)" fill="#fff" stroke="#707070" stroke-width="1">
        <rect width="328" height="44" stroke="none"/>
        <rect x="0.5" y="0.5" width="327" height="43" fill="none"/>
      </g>
    </g>
    <line id="Line_66" data-name="Line 66" x2="359" transform="translate(0.5 125.5)" fill="none" stroke="#707070" stroke-width="1"/>
    <g id="save_changes_button" data-name="save changes button">
      <g id="Group_1947" data-name="Group 1947" transform="translate(173 -121)">
        <rect id="Rectangle_604-2" data-name="Rectangle 604" width="152" height="41" rx="20.5" transform="translate(27 196)" fill="#720c03" opacity="0.59"/>
        <rect id="Rectangle_603-2" data-name="Rectangle 603" width="152" height="41" rx="20.5" transform="translate(27 196)" fill="#c92c27"/>
        <rect id="Rectangle_602-2" data-name="Rectangle 602" width="152" height="41" rx="20.5" transform="translate(27 196)" fill="#c92815"/>
      </g>
      <text id="Save_Changes" data-name="Save Changes" transform="translate(276 104)" fill="#f8f4f7" font-size="19" font-family="SegoeUI, Segoe UI"><tspan x="-58.062" y="0">Save Changes</tspan></text>
    </g>
    <text id="Manage_List-2" data-name="Manage List" transform="translate(82 106)" fill="#c92815" font-size="26" font-family="SegoeUI, Segoe UI"><tspan x="-69.462" y="0">Manage List</tspan></text>
    <rect id="Rectangle_615" data-name="Rectangle 615" width="360" height="68" transform="translate(-1)" fill="#c92815"/>
    <g id="back" transform="translate(15.9 -11.063)">
      <g id="Group_1964" data-name="Group 1964" transform="translate(0 31.842)">
        <path id="Path_445" data-name="Path 445" d="M34.87,43.194a3.1,3.1,0,0,0-.459-.029H8.237l.571-.227a5.388,5.388,0,0,0,1.5-.906l7.34-6.263a2.1,2.1,0,0,0,.385-3,2.962,2.962,0,0,0-3.71-.489,2.6,2.6,0,0,0-.272.195L.778,43.8a2.038,2.038,0,0,0,0,3.2l0,0L14.051,58.33a2.987,2.987,0,0,0,3.754,0,2.426,2.426,0,0,0,.228-.222,2.1,2.1,0,0,0-.385-3l-7.326-6.274A5.357,5.357,0,0,0,8.994,48L8.2,47.7H34.265a2.689,2.689,0,0,0,2.8-1.9A2.336,2.336,0,0,0,34.87,43.194Z" transform="translate(0 -31.842)" fill="#fff"/>
      </g>
    </g>
    <text id="GIFT_GALLERY" data-name="GIFT GALLERY" transform="translate(92 46)" fill="#f8f4f7" font-size="33" font-family="CurlzMT, Curlz MT"><tspan x="0" y="0">GIFT GALLERY</tspan></text>
  </g>
</svg>
