<svg xmlns="http://www.w3.org/2000/svg" xmlns:xlink="http://www.w3.org/1999/xlink" width="360" height="640" viewBox="0 0 360 640">
  <defs>
    <clipPath id="clip-my_profile">
      <rect width="360" height="640"/>
    </clipPath>
  </defs>
  <g id="my_profile" data-name="my profile" clip-path="url(#clip-my_profile)">
    <rect width="360" height="640" fill="#fff"/>
    <rect id="Rectangle_615" data-name="Rectangle 615" width="360" height="68" transform="translate(-1)" fill="#c92815"/>
    <g id="back" transform="translate(15.9 -11.063)">
      <g id="Group_1964" data-name="Group 1964" transform="translate(0 31.842)">
        <path id="Path_445" data-name="Path 445" d="M34.87,43.194a3.1,3.1,0,0,0-.459-.029H8.237l.571-.227a5.388,5.388,0,0,0,1.5-.906l7.34-6.263a2.1,2.1,0,0,0,.385-3,2.962,2.962,0,0,0-3.71-.489,2.6,2.6,0,0,0-.272.195L.778,43.8a2.038,2.038,0,0,0,0,3.2l0,0L14.051,58.33a2.987,2.987,0,0,0,3.754,0,2.426,2.426,0,0,0,.228-.222,2.1,2.1,0,0,0-.385-3l-7.326-6.274A5.357,5.357,0,0,0,8.994,48L8.2,47.7H34.265a2.689,2.689,0,0,0,2.8-1.9A2.336,2.336,0,0,0,34.87,43.194Z" transform="translate(0 -31.842)" fill="#fff"/>
      </g>
    </g>
    <text id="My_Profile-2" data-name="My Profile" transform="translate(180 50)" fill="#f8f4f7" font-size="37" font-family="SegoeUI, Segoe UI"><tspan x="-82.69" y="0">My Profile</tspan></text>
    <g id="user" transform="translate(131 95.973)">
      <g id="Group_2125" data-name="Group 2125" transform="translate(0 0.011)">
        <path id="Path_613" data-name="Path 613" d="M83.563,14.939A48.491,48.491,0,1,0,14.928,83.424c.028.028.038.069.066.094.281.27.585.5.87.759.779.693,1.559,1.41,2.38,2.078.44.346.9.693,1.348,1.011.776.578,1.552,1.157,2.362,1.691.551.346,1.119.693,1.683,1.039.748.45,1.493.9,2.266,1.316.655.346,1.323.644,1.988.959.727.346,1.445.693,2.189,1s1.493.554,2.248.824,1.406.52,2.13.741c.818.246,1.656.436,2.487.641.693.17,1.365.364,2.078.5.956.191,1.926.312,2.9.443.6.083,1.185.2,1.791.26,1.587.156,3.187.243,4.8.243s3.215-.087,4.8-.243c.606-.059,1.192-.177,1.791-.26.97-.132,1.94-.253,2.9-.443.693-.139,1.386-.346,2.078-.5.831-.2,1.67-.395,2.487-.641.724-.222,1.424-.492,2.13-.741s1.51-.52,2.248-.824,1.462-.662,2.189-1c.665-.315,1.334-.613,1.988-.959.772-.412,1.517-.866,2.266-1.316.565-.346,1.133-.662,1.683-1.039.811-.533,1.587-1.112,2.362-1.691.45-.346.907-.658,1.348-1.011.821-.658,1.6-1.358,2.38-2.078.284-.26.589-.488.87-.759.028-.024.038-.066.066-.094A48.437,48.437,0,0,0,83.563,14.939ZM75.777,79.8c-.63.554-1.282,1.081-1.94,1.59-.388.3-.776.592-1.174.876-.627.454-1.264.883-1.912,1.3-.471.3-.953.592-1.438.876q-.915.52-1.857,1.039c-.554.284-1.119.551-1.687.814s-1.2.544-1.808.79-1.264.478-1.905.693c-.585.2-1.171.409-1.763.585-.693.208-1.417.378-2.134.551-.561.132-1.115.281-1.683.392-.821.159-1.659.27-2.5.384-.478.062-.953.149-1.434.2-1.33.128-2.678.2-4.039.2s-2.709-.076-4.039-.2c-.481-.049-.956-.135-1.434-.2-.842-.114-1.68-.225-2.5-.384-.568-.111-1.122-.26-1.683-.392-.717-.173-1.431-.346-2.134-.551-.592-.177-1.178-.384-1.763-.585-.641-.222-1.282-.447-1.905-.693s-1.212-.516-1.808-.79-1.133-.53-1.687-.814c-.627-.326-1.247-.669-1.857-1.039-.485-.284-.967-.575-1.438-.876-.648-.412-1.285-.842-1.912-1.3-.4-.284-.786-.578-1.174-.876-.658-.509-1.309-1.039-1.94-1.59-.152-.114-.291-.26-.44-.392A27.792,27.792,0,0,1,39.675,53.443a20.539,20.539,0,0,0,17.646,0A27.792,27.792,0,0,1,76.21,79.405C76.064,79.537,75.926,79.669,75.777,79.8ZM36.418,27.784A13.856,13.856,0,1,1,55.287,46.653a.073.073,0,0,0-.059.021,14.676,14.676,0,0,1-2.9,1.226c-.18.052-.346.121-.537.166-.346.09-.71.152-1.067.215a14.032,14.032,0,0,1-2.033.2H48.3a14.031,14.031,0,0,1-2.033-.2c-.346-.062-.714-.125-1.067-.215-.184-.045-.346-.114-.537-.166a14.665,14.665,0,0,1-2.9-1.226l-.062-.021A13.856,13.856,0,0,1,36.418,27.784ZM82.355,72.536h0A34.813,34.813,0,0,0,63.809,48.659a20.784,20.784,0,1,0-30.622,0A34.813,34.813,0,0,0,14.641,72.536a41.568,41.568,0,1,1,67.714,0Z" transform="translate(0 -0.011)" fill="rgba(0,5,7,0.99)"/>
      </g>
    </g>
    <g id="edit" transform="translate(310 18)">
      <g id="Group_2129" data-name="Group 2129">
        <g id="Group_2128" data-name="Group 2128">
          <path id="Path_614" data-name="Path 614" d="M0,88.752v7.069H7.069L27.928,74.962l-7.069-7.069Z" transform="translate(0 -61.894)"/>
          <path id="Path_615" data-name="Path 615" d="M269.185,4.953l-4.4-4.4a1.889,1.889,0,0,0-2.668,0L258.666,4l7.069,7.069,3.45-3.45A1.889,1.889,0,0,0,269.185,4.953Z" transform="translate(-235.809)"/>
        </g>
      </g>
    </g>
    <g id="Group_2130" data-name="Group 2130" transform="translate(0 54)">
      <text id="Name" transform="translate(16 172)" fill="#c92815" font-size="20" font-family="SegoeUI, Segoe UI"><tspan x="0" y="0">Name</tspan></text>
      <g id="Rectangle_642" data-name="Rectangle 642" transform="translate(16 177)" fill="#fff" stroke="#707070" stroke-width="1">
        <rect width="328" height="44" stroke="none"/>
        <rect x="0.5" y="0.5" width="327" height="43" fill="none"/>
      </g>
    </g>
    <g id="Group_2131" data-name="Group 2131" transform="translate(0 135)">
      <text id="Phone_Number" data-name="Phone Number" transform="translate(16 172)" fill="#c92815" font-size="20" font-family="SegoeUI, Segoe UI"><tspan x="0" y="0">Phone Number</tspan></text>
      <g id="Rectangle_642-2" data-name="Rectangle 642" transform="translate(16 177)" fill="#fff" stroke="#707070" stroke-width="1">
        <rect width="328" height="44" stroke="none"/>
        <rect x="0.5" y="0.5" width="327" height="43" fill="none"/>
      </g>
    </g>
    <g id="Group_2132" data-name="Group 2132" transform="translate(0 216)">
      <text id="Email" transform="translate(16 172)" fill="#c92815" font-size="20" font-family="SegoeUI, Segoe UI"><tspan x="0" y="0">Email</tspan></text>
      <g id="Rectangle_642-3" data-name="Rectangle 642" transform="translate(16 177)" fill="#fff" stroke="#707070" stroke-width="1">
        <rect width="328" height="44" stroke="none"/>
        <rect x="0.5" y="0.5" width="327" height="43" fill="none"/>
      </g>
    </g>
    <g id="Group_2133" data-name="Group 2133" transform="translate(0 297)">
      <text id="Password" transform="translate(16 172)" fill="#c92815" font-size="20" font-family="SegoeUI, Segoe UI"><tspan x="0" y="0">Password</tspan></text>
      <g id="Rectangle_642-4" data-name="Rectangle 642" transform="translate(16 177)" fill="#fff" stroke="#707070" stroke-width="1">
        <rect width="328" height="44" stroke="none"/>
        <rect x="0.5" y="0.5" width="327" height="43" fill="none"/>
      </g>
    </g>
  </g>
</svg>
