<svg xmlns="http://www.w3.org/2000/svg" xmlns:xlink="http://www.w3.org/1999/xlink" width="360" height="640" viewBox="0 0 360 640">
  <defs>
    <clipPath id="clip-new_password">
      <rect width="360" height="640"/>
    </clipPath>
  </defs>
  <g id="new_password" data-name="new password" clip-path="url(#clip-new_password)">
    <rect width="360" height="640" fill="#fff"/>
    <text id="Create_new_password" data-name="Create new password" transform="translate(180 238)" font-size="18" font-family="SegoeUI, Segoe UI"><tspan x="-84.691" y="0">Create new password</tspan></text>
    <g id="Group_1947" data-name="Group 1947" transform="translate(0 258)">
      <rect id="Rectangle_604" data-name="Rectangle 604" width="307" height="46" rx="23" transform="translate(27 196)" fill="#720c03" opacity="0.59"/>
      <rect id="Rectangle_603" data-name="Rectangle 603" width="307" height="46" rx="23" transform="translate(27 196)" fill="#c92c27"/>
      <rect id="Rectangle_602" data-name="Rectangle 602" width="307" height="46" rx="23" transform="translate(27 196)" fill="#c92815"/>
      <text id="Save" transform="translate(151 229)" fill="#d4d0d3" font-size="23" font-family="SegoeUI, Segoe UI"><tspan x="0" y="0">Save</tspan></text>
    </g>
    <g id="Group_2325" data-name="Group 2325" transform="translate(0 101)">
      <text id="New_Password-2" data-name="New Password" transform="translate(46 214)" fill="#707070" font-size="20" font-family="SegoeUI, Segoe UI"><tspan x="0" y="0">New Password</tspan></text>
      <line id="Line_46" data-name="Line 46" x2="288" transform="translate(36.5 218.5)" fill="none" stroke="#707070" stroke-width="1"/>
    </g>
    <g id="Group_2324" data-name="Group 2324" transform="translate(0 99)">
      <line id="Line_47" data-name="Line 47" x2="288" transform="translate(36.5 287.5)" fill="none" stroke="#707070" stroke-width="1"/>
      <text id="Confirm_Password" data-name="Confirm Password" transform="translate(46 283)" fill="#707070" font-size="20" font-family="SegoeUI, Segoe UI"><tspan x="0" y="0">Confirm Password</tspan></text>
    </g>
    <g id="back" transform="translate(16.9 -14.063)">
      <g id="Group_1964" data-name="Group 1964" transform="translate(0 31.842)">
        <path id="Path_445" data-name="Path 445" d="M34.87,43.194a3.1,3.1,0,0,0-.459-.029H8.237l.571-.227a5.388,5.388,0,0,0,1.5-.906l7.34-6.263a2.1,2.1,0,0,0,.385-3,2.962,2.962,0,0,0-3.71-.489,2.6,2.6,0,0,0-.272.195L.778,43.8a2.038,2.038,0,0,0,0,3.2l0,0L14.051,58.33a2.987,2.987,0,0,0,3.754,0,2.426,2.426,0,0,0,.228-.222,2.1,2.1,0,0,0-.385-3l-7.326-6.274A5.357,5.357,0,0,0,8.994,48L8.2,47.7H34.265a2.689,2.689,0,0,0,2.8-1.9A2.336,2.336,0,0,0,34.87,43.194Z" transform="translate(0 -31.842)" fill="#c92815"/>
      </g>
    </g>
    <text id="Reset_Password" data-name="Reset Password" transform="translate(180 182)" fill="#c92815" font-size="37" font-family="SegoeUI-Bold, Segoe UI" font-weight="700"><tspan x="-133.926" y="0">Reset Password</tspan></text>
    <g id="cloud" transform="translate(108.767 30.928)">
      <path id="Path_962" data-name="Path 962" d="M79.8,20.738v6.738H36V20.738A6.736,6.736,0,0,1,42.738,14H73.06A6.736,6.736,0,0,1,79.8,20.738Z" transform="translate(23.275)" fill="#aab2bd"/>
      <path id="Path_963" data-name="Path 963" d="M79.8,54v6.738a6.736,6.736,0,0,1-6.738,6.738H42.738A6.736,6.736,0,0,1,36,60.738V54Z" transform="translate(23.275 27.382)" fill="#aab2bd"/>
      <path id="Path_964" data-name="Path 964" d="M36,22H79.8V75.905H36Z" transform="translate(23.275 5.476)" fill="#69d6f4"/>
      <path id="Path_965" data-name="Path 965" d="M66.013,43.792V53.9h-31.1a16.845,16.845,0,1,1,0-10.107h31.1Zm-43.8,5.054a6.738,6.738,0,1,0-6.738,6.738A6.736,6.736,0,0,0,22.215,48.845Z" transform="translate(0 12.322)" fill="#fcd770"/>
      <path id="Path_966" data-name="Path 966" d="M70.322,27.685v37.06a1.689,1.689,0,0,1-1.685,1.685H41.685A1.69,1.69,0,0,1,40,64.745V27.685A1.69,1.69,0,0,1,41.685,26H68.637A1.689,1.689,0,0,1,70.322,27.685Z" transform="translate(26.013 8.215)" fill="#e6e9ed"/>
      <path id="Path_967" data-name="Path 967" d="M59.161,35.369a8.324,8.324,0,0,1,1.685,5.054,8.423,8.423,0,1,1-1.685-5.054Z" transform="translate(28.751 12.322)" fill="#b4dd7f"/>
      <path id="Path_968" data-name="Path 968" d="M48,17h3.369v3.369H48Z" transform="translate(31.489 2.054)"/>
      <path id="Path_969" data-name="Path 969" d="M44,17h3.369v3.369H44Z" transform="translate(28.751 2.054)"/>
      <path id="Path_970" data-name="Path 970" d="M52,17h3.369v3.369H52Z" transform="translate(34.227 2.054)"/>
      <path id="Path_971" data-name="Path 971" d="M45,57H58.476v3.369H45Z" transform="translate(29.435 29.435)"/>
      <path id="Path_973" data-name="Path 973" d="M63.708,30.293l-3.822,3.822a10,10,0,1,0,2.106,2.658l4.1-4.1Zm-3.863,11.3a6.738,6.738,0,1,1-6.738-6.738,6.675,6.675,0,0,1,4.38,1.661l-4.38,4.38-2.178-2.178L48.547,41.1l4.56,4.56,6.322-6.322a6.689,6.689,0,0,1,.416,2.256Z" transform="translate(28.066 11.153)"/>
      <path id="Path_974" data-name="Path 974" d="M13.423,37a8.423,8.423,0,1,0,8.423,8.423A8.432,8.432,0,0,0,13.423,37Zm0,13.476a5.054,5.054,0,1,1,5.054-5.054A5.06,5.06,0,0,1,13.423,50.476Z" transform="translate(2.054 15.745)"/>
      <path id="Path_980" data-name="Path 980" d="M43,45h3.369v3.369H43Z" transform="translate(28.066 21.221)"/>
      <path id="Path_981" data-name="Path 981" d="M47,45h3.369v3.369H47Z" transform="translate(30.805 21.221)"/>
      <path id="Path_982" data-name="Path 982" d="M51,45h3.369v3.369H51Z" transform="translate(33.543 21.221)"/>
    </g>
  </g>
</svg>
