<svg xmlns="http://www.w3.org/2000/svg" xmlns:xlink="http://www.w3.org/1999/xlink" width="360" height="640" viewBox="0 0 360 640">
  <defs>
    <clipPath id="clip-notification">
      <rect width="360" height="640"/>
    </clipPath>
  </defs>
  <g id="notification" clip-path="url(#clip-notification)">
    <rect width="360" height="640" fill="#fff"/>
    <rect id="Rectangle_615" data-name="Rectangle 615" width="360" height="68" transform="translate(-1)" fill="#c92815"/>
    <g id="back" transform="translate(15.9 -11.063)">
      <g id="Group_1964" data-name="Group 1964" transform="translate(0 31.842)">
        <path id="Path_445" data-name="Path 445" d="M34.87,43.194a3.1,3.1,0,0,0-.459-.029H8.237l.571-.227a5.388,5.388,0,0,0,1.5-.906l7.34-6.263a2.1,2.1,0,0,0,.385-3,2.962,2.962,0,0,0-3.71-.489,2.6,2.6,0,0,0-.272.195L.778,43.8a2.038,2.038,0,0,0,0,3.2l0,0L14.051,58.33a2.987,2.987,0,0,0,3.754,0,2.426,2.426,0,0,0,.228-.222,2.1,2.1,0,0,0-.385-3l-7.326-6.274A5.357,5.357,0,0,0,8.994,48L8.2,47.7H34.265a2.689,2.689,0,0,0,2.8-1.9A2.336,2.336,0,0,0,34.87,43.194Z" transform="translate(0 -31.842)" fill="#fff"/>
      </g>
    </g>
    <text id="Notifictions" transform="translate(180 50)" fill="#f8f4f7" font-size="37" font-family="SegoeUI, Segoe UI"><tspan x="-94.153" y="0">Notifictions</tspan></text>
    <text id="No_Notification." data-name="No Notification." transform="translate(180 366)" fill="#c92815" font-size="29" font-family="SegoeUI, Segoe UI"><tspan x="-101.479" y="0">No Notification.</tspan></text>
    <g id="bell" transform="translate(97.494 252)">
      <path id="Path_522" data-name="Path 522" d="M210.308,0a7.77,7.77,0,0,0-7.77,7.77,7.747,7.747,0,0,0,.1,1.113,1.554,1.554,0,0,0,1.554,1.33,1.587,1.587,0,0,0,.438-.062,20.052,20.052,0,0,1,11.378,0,1.592,1.592,0,0,0,1.284-.233A1.66,1.66,0,0,0,218,8.786a7.036,7.036,0,0,0,.093-1.019A7.77,7.77,0,0,0,210.32,0Z" transform="translate(-127.32 0)" fill="#f57c00"/>
      <path id="Path_523" data-name="Path 523" d="M201.406,426.667H182.758a1.554,1.554,0,0,0-1.554,1.554,10.878,10.878,0,1,0,21.756,0A1.554,1.554,0,0,0,201.406,426.667Z" transform="translate(-109.094 -371.289)" fill="#ffa000"/>
      <path id="Path_524" data-name="Path 524" d="M111.957,87.459c-.491-.96-1.11-2.033-1.793-3.216A41.114,41.114,0,0,1,103.189,63.5c0-10.9-6.527-18.9-16.621-20.378a21.676,21.676,0,0,0-16.354,4.22,18.377,18.377,0,0,0-7.459,15.185,40.221,40.221,0,0,1-6.937,21.754c-.668,1.166-1.277,2.228-1.762,3.174-1.4,2.734-.032,5.955,3.057,7.2a6.823,6.823,0,0,0,2.565.485h46.669c3.392.009,6.15-2.417,6.16-5.419a4.913,4.913,0,0,0-.547-2.258h0Z" transform="translate(0 -36.651)" fill="#ffc107"/>
      <path id="Path_525" data-name="Path 525" d="M104.53,131.953a1.554,1.554,0,0,1-1.389-2.25l.5-.982a56.938,56.938,0,0,0,7.624-26.293c0-7.885,3.664-17.094,13.986-17.094a1.554,1.554,0,0,1,0,3.108c-10.095,0-10.878,10.7-10.878,13.986a59.577,59.577,0,0,1-7.966,27.707l-.485.96A1.554,1.554,0,0,1,104.53,131.953Z" transform="translate(-42.263 -74.911)" fill="#ffd54f"/>
    </g>
  </g>
</svg>
