<svg xmlns="http://www.w3.org/2000/svg" xmlns:xlink="http://www.w3.org/1999/xlink" width="360" height="640" viewBox="0 0 360 640">
  <defs>
    <clipPath id="clip-rate_us">
      <rect width="360" height="640"/>
    </clipPath>
  </defs>
  <g id="rate_us" data-name="rate us" clip-path="url(#clip-rate_us)">
    <rect width="360" height="640" fill="#fff"/>
    <rect id="Rectangle_615" data-name="Rectangle 615" width="360" height="68" transform="translate(-1)" fill="#c92815"/>
    <g id="back" transform="translate(15.9 -11.063)">
      <g id="Group_1964" data-name="Group 1964" transform="translate(0 31.842)">
        <path id="Path_445" data-name="Path 445" d="M34.87,43.194a3.1,3.1,0,0,0-.459-.029H8.237l.571-.227a5.388,5.388,0,0,0,1.5-.906l7.34-6.263a2.1,2.1,0,0,0,.385-3,2.962,2.962,0,0,0-3.71-.489,2.6,2.6,0,0,0-.272.195L.778,43.8a2.038,2.038,0,0,0,0,3.2l0,0L14.051,58.33a2.987,2.987,0,0,0,3.754,0,2.426,2.426,0,0,0,.228-.222,2.1,2.1,0,0,0-.385-3l-7.326-6.274A5.357,5.357,0,0,0,8.994,48L8.2,47.7H34.265a2.689,2.689,0,0,0,2.8-1.9A2.336,2.336,0,0,0,34.87,43.194Z" transform="translate(0 -31.842)" fill="#fff"/>
      </g>
    </g>
    <text id="Rate_Us-2" data-name="Rate Us" transform="translate(180 50)" fill="#f8f4f7" font-size="37" font-family="SegoeUI, Segoe UI"><tspan x="-62.049" y="0">Rate Us</tspan></text>
    <g id="Component_58_2" data-name="Component 58 – 2" transform="translate(25.795 251.553)">
      <g id="Component_57_2" data-name="Component 57 – 2">
        <g id="Component_56_3" data-name="Component 56 – 3">
          <g id="Component_55_1" data-name="Component 55 – 1">
            <g id="Component_54_1" data-name="Component 54 – 1">
              <g id="Path_588" data-name="Path 588" transform="translate(229.282 179.991)" fill="rgba(252,252,252,0.99)">
                <path d="M -184.2759246826172 -126.550895690918 L -200.9877319335938 -137.4364471435547 L -201.2616882324219 -137.6148834228516 L -201.5350036621094 -137.4354858398438 L -218.1179962158203 -126.550910949707 L -213.2477264404297 -145.9086456298828 L -213.1712799072266 -146.2124938964844 L -213.411376953125 -146.4137878417969 L -228.0240020751953 -158.6651763916016 L -208.8340911865234 -160.1785125732422 L -208.5227508544922 -160.2030639648438 L -208.4082336425781 -160.4936218261719 L -201.2557525634766 -178.6397552490234 L -193.9497222900391 -160.4902496337891 L -193.8340301513672 -160.2028656005859 L -193.5252075195313 -160.1785125732422 L -174.3441772460938 -158.6658782958984 L -189.10791015625 -146.4154205322266 L -189.3520660400391 -146.2128295898438 L -189.2727661132813 -145.9056396484375 L -184.2759246826172 -126.550895690918 Z" stroke="none"/>
                <path d="M -201.2508544921875 -177.2886505126953 L -207.9430541992188 -160.3102722167969 L -208.1721038818359 -159.7291717529297 L -208.7947692871094 -159.6800842285156 L -226.7658843994141 -158.2628479003906 L -213.0901336669922 -146.7969360351563 L -212.6099395751953 -146.3943481445313 L -212.7628326416016 -145.7866516113281 L -217.3201904296875 -127.6726531982422 L -201.8093719482422 -137.8534851074219 L -201.2627258300781 -138.2122802734375 L -200.71484375 -137.8554077148438 L -185.0819091796875 -127.6725921630859 L -189.7568817138672 -145.7806701660156 L -189.9154968261719 -146.39501953125 L -189.4272003173828 -146.8002014160156 L -175.6112213134766 -158.2642517089844 L -193.5645141601563 -159.6800842285156 L -194.1821899414063 -159.7287902832031 L -194.4135589599609 -160.3035430908203 L -201.2508544921875 -177.2886505126953 M -201.2606353759766 -179.9908447265625 L -193.4859008789063 -160.6769714355469 L -173.0771484375 -159.0675048828125 L -188.7886352539063 -146.0306396484375 L -183.4699401855469 -125.4291687011719 L -201.2606353759766 -137.0174865722656 L -218.9158020019531 -125.4291687011719 L -213.7326202392578 -146.0306396484375 L -229.2821044921875 -159.0675048828125 L -208.8733978271484 -160.6769714355469 L -201.2606353759766 -179.9908447265625 Z" stroke="none" fill="#c92815"/>
              </g>
            </g>
            <g id="Path_618" data-name="Path 618" transform="translate(292.282 179.991)" fill="rgba(252,252,252,0.99)">
              <path d="M -184.2759246826172 -126.550895690918 L -200.9877319335938 -137.4364471435547 L -201.2616882324219 -137.6148834228516 L -201.5350036621094 -137.4354858398438 L -218.1179962158203 -126.550910949707 L -213.2477264404297 -145.9086456298828 L -213.1712799072266 -146.2124938964844 L -213.411376953125 -146.4137878417969 L -228.0240020751953 -158.6651763916016 L -208.8340911865234 -160.1785125732422 L -208.5227508544922 -160.2030639648438 L -208.4082336425781 -160.4936218261719 L -201.2557525634766 -178.6397552490234 L -193.9497222900391 -160.4902496337891 L -193.8340301513672 -160.2028656005859 L -193.5252075195313 -160.1785125732422 L -174.3441772460938 -158.6658782958984 L -189.10791015625 -146.4154205322266 L -189.3520660400391 -146.2128295898438 L -189.2727661132813 -145.9056396484375 L -184.2759246826172 -126.550895690918 Z" stroke="none"/>
              <path d="M -201.2508544921875 -177.2886505126953 L -207.9430541992188 -160.3102722167969 L -208.1721038818359 -159.7291717529297 L -208.7947692871094 -159.6800842285156 L -226.7658843994141 -158.2628479003906 L -213.0901336669922 -146.7969360351563 L -212.6099395751953 -146.3943481445313 L -212.7628326416016 -145.7866516113281 L -217.3201904296875 -127.6726531982422 L -201.8093719482422 -137.8534851074219 L -201.2627258300781 -138.2122802734375 L -200.71484375 -137.8554077148438 L -185.0819091796875 -127.6725921630859 L -189.7568817138672 -145.7806701660156 L -189.9154968261719 -146.39501953125 L -189.4272003173828 -146.8002014160156 L -175.6112213134766 -158.2642517089844 L -193.5645141601563 -159.6800842285156 L -194.1821899414063 -159.7287902832031 L -194.4135589599609 -160.3035430908203 L -201.2508544921875 -177.2886505126953 M -201.2606353759766 -179.9908447265625 L -193.4859008789063 -160.6769714355469 L -173.0771484375 -159.0675048828125 L -188.7886352539063 -146.0306396484375 L -183.4699401855469 -125.4291687011719 L -201.2606353759766 -137.0174865722656 L -218.9158020019531 -125.4291687011719 L -213.7326202392578 -146.0306396484375 L -229.2821044921875 -159.0675048828125 L -208.8733978271484 -160.6769714355469 L -201.2606353759766 -179.9908447265625 Z" stroke="none" fill="#c92815"/>
            </g>
          </g>
          <g id="Path_619" data-name="Path 619" transform="translate(355.282 179.991)" fill="rgba(252,252,252,0.99)">
            <path d="M -184.2759246826172 -126.550895690918 L -200.9877319335938 -137.4364471435547 L -201.2616882324219 -137.6148834228516 L -201.5350036621094 -137.4354858398438 L -218.1179962158203 -126.550910949707 L -213.2477264404297 -145.9086456298828 L -213.1712799072266 -146.2124938964844 L -213.411376953125 -146.4137878417969 L -228.0240020751953 -158.6651763916016 L -208.8340911865234 -160.1785125732422 L -208.5227508544922 -160.2030639648438 L -208.4082336425781 -160.4936218261719 L -201.2557525634766 -178.6397552490234 L -193.9497222900391 -160.4902496337891 L -193.8340301513672 -160.2028656005859 L -193.5252075195313 -160.1785125732422 L -174.3441772460938 -158.6658782958984 L -189.10791015625 -146.4154205322266 L -189.3520660400391 -146.2128295898438 L -189.2727661132813 -145.9056396484375 L -184.2759246826172 -126.550895690918 Z" stroke="none"/>
            <path d="M -201.2508544921875 -177.2886505126953 L -207.9430541992188 -160.3102722167969 L -208.1721038818359 -159.7291717529297 L -208.7947692871094 -159.6800842285156 L -226.7658843994141 -158.2628479003906 L -213.0901336669922 -146.7969360351563 L -212.6099395751953 -146.3943481445313 L -212.7628326416016 -145.7866516113281 L -217.3201904296875 -127.6726531982422 L -201.8093719482422 -137.8534851074219 L -201.2627258300781 -138.2122802734375 L -200.71484375 -137.8554077148438 L -185.0819091796875 -127.6725921630859 L -189.7568817138672 -145.7806701660156 L -189.9154968261719 -146.39501953125 L -189.4272003173828 -146.8002014160156 L -175.6112213134766 -158.2642517089844 L -193.5645141601563 -159.6800842285156 L -194.1821899414063 -159.7287902832031 L -194.4135589599609 -160.3035430908203 L -201.2508544921875 -177.2886505126953 M -201.2606353759766 -179.9908447265625 L -193.4859008789063 -160.6769714355469 L -173.0771484375 -159.0675048828125 L -188.7886352539063 -146.0306396484375 L -183.4699401855469 -125.4291687011719 L -201.2606353759766 -137.0174865722656 L -218.9158020019531 -125.4291687011719 L -213.7326202392578 -146.0306396484375 L -229.2821044921875 -159.0675048828125 L -208.8733978271484 -160.6769714355469 L -201.2606353759766 -179.9908447265625 Z" stroke="none" fill="#c92815"/>
          </g>
        </g>
        <g id="Path_620" data-name="Path 620" transform="translate(418.282 179.991)" fill="rgba(252,252,252,0.99)">
          <path d="M -184.2759246826172 -126.550895690918 L -200.9877319335938 -137.4364471435547 L -201.2616882324219 -137.6148834228516 L -201.5350036621094 -137.4354858398438 L -218.1179962158203 -126.550910949707 L -213.2477264404297 -145.9086456298828 L -213.1712799072266 -146.2124938964844 L -213.411376953125 -146.4137878417969 L -228.0240020751953 -158.6651763916016 L -208.8340911865234 -160.1785125732422 L -208.5227508544922 -160.2030639648438 L -208.4082336425781 -160.4936218261719 L -201.2557525634766 -178.6397552490234 L -193.9497222900391 -160.4902496337891 L -193.8340301513672 -160.2028656005859 L -193.5252075195313 -160.1785125732422 L -174.3441772460938 -158.6658782958984 L -189.10791015625 -146.4154205322266 L -189.3520660400391 -146.2128295898438 L -189.2727661132813 -145.9056396484375 L -184.2759246826172 -126.550895690918 Z" stroke="none"/>
          <path d="M -201.2508544921875 -177.2886505126953 L -207.9430541992188 -160.3102722167969 L -208.1721038818359 -159.7291717529297 L -208.7947692871094 -159.6800842285156 L -226.7658843994141 -158.2628479003906 L -213.0901336669922 -146.7969360351563 L -212.6099395751953 -146.3943481445313 L -212.7628326416016 -145.7866516113281 L -217.3201904296875 -127.6726531982422 L -201.8093719482422 -137.8534851074219 L -201.2627258300781 -138.2122802734375 L -200.71484375 -137.8554077148438 L -185.0819091796875 -127.6725921630859 L -189.7568817138672 -145.7806701660156 L -189.9154968261719 -146.39501953125 L -189.4272003173828 -146.8002014160156 L -175.6112213134766 -158.2642517089844 L -193.5645141601563 -159.6800842285156 L -194.1821899414063 -159.7287902832031 L -194.4135589599609 -160.3035430908203 L -201.2508544921875 -177.2886505126953 M -201.2606353759766 -179.9908447265625 L -193.4859008789063 -160.6769714355469 L -173.0771484375 -159.0675048828125 L -188.7886352539063 -146.0306396484375 L -183.4699401855469 -125.4291687011719 L -201.2606353759766 -137.0174865722656 L -218.9158020019531 -125.4291687011719 L -213.7326202392578 -146.0306396484375 L -229.2821044921875 -159.0675048828125 L -208.8733978271484 -160.6769714355469 L -201.2606353759766 -179.9908447265625 Z" stroke="none" fill="#c92815"/>
        </g>
      </g>
      <g id="Path_621" data-name="Path 621" transform="translate(481.282 179.991)" fill="rgba(252,252,252,0.99)">
        <path d="M -184.2759246826172 -126.550895690918 L -200.9877319335938 -137.4364471435547 L -201.2616882324219 -137.6148834228516 L -201.5350036621094 -137.4354858398438 L -218.1179962158203 -126.550910949707 L -213.2477264404297 -145.9086456298828 L -213.1712799072266 -146.2124938964844 L -213.411376953125 -146.4137878417969 L -228.0240020751953 -158.6651763916016 L -208.8340911865234 -160.1785125732422 L -208.5227508544922 -160.2030639648438 L -208.4082336425781 -160.4936218261719 L -201.2557525634766 -178.6397552490234 L -193.9497222900391 -160.4902496337891 L -193.8340301513672 -160.2028656005859 L -193.5252075195313 -160.1785125732422 L -174.3441772460938 -158.6658782958984 L -189.10791015625 -146.4154205322266 L -189.3520660400391 -146.2128295898438 L -189.2727661132813 -145.9056396484375 L -184.2759246826172 -126.550895690918 Z" stroke="none"/>
        <path d="M -201.2508544921875 -177.2886505126953 L -207.9430541992188 -160.3102722167969 L -208.1721038818359 -159.7291717529297 L -208.7947692871094 -159.6800842285156 L -226.7658843994141 -158.2628479003906 L -213.0901336669922 -146.7969360351563 L -212.6099395751953 -146.3943481445313 L -212.7628326416016 -145.7866516113281 L -217.3201904296875 -127.6726531982422 L -201.8093719482422 -137.8534851074219 L -201.2627258300781 -138.2122802734375 L -200.71484375 -137.8554077148438 L -185.0819091796875 -127.6725921630859 L -189.7568817138672 -145.7806701660156 L -189.9154968261719 -146.39501953125 L -189.4272003173828 -146.8002014160156 L -175.6112213134766 -158.2642517089844 L -193.5645141601563 -159.6800842285156 L -194.1821899414063 -159.7287902832031 L -194.4135589599609 -160.3035430908203 L -201.2508544921875 -177.2886505126953 M -201.2606353759766 -179.9908447265625 L -193.4859008789063 -160.6769714355469 L -173.0771484375 -159.0675048828125 L -188.7886352539063 -146.0306396484375 L -183.4699401855469 -125.4291687011719 L -201.2606353759766 -137.0174865722656 L -218.9158020019531 -125.4291687011719 L -213.7326202392578 -146.0306396484375 L -229.2821044921875 -159.0675048828125 L -208.8733978271484 -160.6769714355469 L -201.2606353759766 -179.9908447265625 Z" stroke="none" fill="#c92815"/>
      </g>
    </g>
    <g id="Path_622" data-name="Path 622" transform="translate(15 403)" fill="#fff">
      <path d="M 329.5 132.5 L 0.5 132.5 L 0.5 0.5 L 329.5 0.5 L 329.5 132.5 Z" stroke="none"/>
      <path d="M 1 1 L 1 132 L 329 132 L 329 1 L 1 1 M 0 0 L 330 0 L 330 133 L 0 133 L 0 0 Z" stroke="none" fill="#707070"/>
    </g>
    <g id="Group_2119" data-name="Group 2119" transform="translate(-96 495)">
      <g id="Group_1947" data-name="Group 1947" transform="translate(144.725 -121)">
        <rect id="Rectangle_604" data-name="Rectangle 604" width="209" height="41" rx="20.5" transform="translate(27.275 196)" fill="#720c03" opacity="0.59"/>
        <rect id="Rectangle_603" data-name="Rectangle 603" width="209" height="41" rx="20.5" transform="translate(27.275 196)" fill="#c92c27"/>
        <rect id="Rectangle_602" data-name="Rectangle 602" width="209" height="41" rx="20.5" transform="translate(27.275 196)" fill="#c92815"/>
      </g>
      <text id="Submit" transform="translate(276 104)" fill="#f8f4f7" font-size="21" font-family="SegoeUI, Segoe UI"><tspan x="-32.838" y="0">Submit</tspan></text>
    </g>
    <text id="Feedback" transform="translate(70 375)" fill="#c92815" font-size="26" font-family="SegoeUI, Segoe UI"><tspan x="-54.323" y="0">Feedback</tspan></text>
    <text id="Please_fill_in_your_answer." data-name="Please fill in your answer." transform="translate(26 410)" fill="#707070" font-size="20" font-family="SegoeUI, Segoe UI"><tspan x="0" y="22">Please fill in your answer.</tspan></text>
    <text id="Your_opinion_is_important_for_us._This_way_we_can_improving_our_app._" data-name="Your opinion is important for us. 
This way we can improving our app. " transform="translate(180 122)" fill="rgba(0,5,7,0.99)" font-size="21" font-family="SegoeUI, Segoe UI"><tspan x="-152.055" y="0">Your opinion is important for us. </tspan><tspan x="-168.769" y="28">This way we can improving our app. </tspan></text>
    <text id="Please_Rate_Us" data-name="Please Rate Us" transform="translate(97 224)" fill="#c92815" font-size="26" font-family="SegoeUI, Segoe UI"><tspan x="-83.319" y="0">Please Rate Us</tspan></text>
  </g>
</svg>
