<svg xmlns="http://www.w3.org/2000/svg" xmlns:xlink="http://www.w3.org/1999/xlink" width="360" height="640" viewBox="0 0 360 640">
  <defs>
    <clipPath id="clip-search">
      <rect width="360" height="640"/>
    </clipPath>
  </defs>
  <g id="search" clip-path="url(#clip-search)">
    <rect width="360" height="640" fill="#fff"/>
    <rect id="Rectangle_609" data-name="Rectangle 609" width="360" height="68" fill="#c92815"/>
    <g id="Rectangle_610" data-name="Rectangle 610" transform="translate(53 11)" fill="#fff" stroke="#707070" stroke-width="1">
      <rect width="298" height="47" rx="23.5" stroke="none"/>
      <rect x="0.5" y="0.5" width="297" height="46" rx="23" fill="none"/>
    </g>
    <g id="back" transform="translate(6.9 -11.063)">
      <g id="Group_1964" data-name="Group 1964" transform="translate(0 31.842)">
        <path id="Path_445" data-name="Path 445" d="M34.87,43.194a3.1,3.1,0,0,0-.459-.029H8.237l.571-.227a5.388,5.388,0,0,0,1.5-.906l7.34-6.263a2.1,2.1,0,0,0,.385-3,2.962,2.962,0,0,0-3.71-.489,2.6,2.6,0,0,0-.272.195L.778,43.8a2.038,2.038,0,0,0,0,3.2l0,0L14.051,58.33a2.987,2.987,0,0,0,3.754,0,2.426,2.426,0,0,0,.228-.222,2.1,2.1,0,0,0-.385-3l-7.326-6.274A5.357,5.357,0,0,0,8.994,48L8.2,47.7H34.265a2.689,2.689,0,0,0,2.8-1.9A2.336,2.336,0,0,0,34.87,43.194Z" transform="translate(0 -31.842)" fill="#fff"/>
      </g>
    </g>
    <text id="Search-2" data-name="Search" transform="translate(133 45)" fill="#c92815" font-size="23" font-family="SegoeUI, Segoe UI" opacity="0.75"><tspan x="-33.792" y="0">Search</tspan></text>
    <g id="surface1" transform="matrix(0.999, -0.052, 0.052, 0.999, 58.557, 21.16)">
      <path id="Path_444" data-name="Path 444" d="M20.663,19.326a12.9,12.9,0,0,0-2.7-17.073A10.778,10.778,0,0,0,2.191,5.172a12.9,12.9,0,0,0,2.7,17.072,10.6,10.6,0,0,0,12.294.55l8.344,8.976a2.243,2.243,0,0,0,3.348.093,2.714,2.714,0,0,0,.086-3.623c-.028-.033-.056-.063-.086-.093Zm-9.243.837c-4.031,0-7.3-3.533-7.3-7.9s3.264-7.9,7.3-7.9,7.292,3.527,7.3,7.883-3.257,7.906-7.289,7.913Zm0,0" transform="translate(0 0)" fill="#c92815"/>
    </g>
    <g id="Group_2352" data-name="Group 2352" transform="translate(14 -1)">
      <g id="Group_2350" data-name="Group 2350" transform="translate(-1 29.317)">
        <path id="Path_987" data-name="Path 987" d="M356.2,118.129h-.781V97.849c0-6.482-5.545-11.738-12.385-11.738H297.7c-6.84,0-12.385,5.255-12.385,11.738V209.106c0,6.483,5.545,11.738,12.385,11.738h45.337c6.84,0,12.385-5.255,12.385-11.738V132.564h.781Z" transform="translate(-178.311 151.617)" fill="#1f3a49"/>
        <path id="Path_988" data-name="Path 988" d="M357.61,102.606h-5.918a3.979,3.979,0,0,1-.422,3.9,4.465,4.465,0,0,1-3.647,1.842H321.65A4.465,4.465,0,0,1,318,106.5a3.979,3.979,0,0,1-.422-3.9h-5.527a9.017,9.017,0,0,0-9.249,8.765V222.466a9.017,9.017,0,0,0,9.249,8.765H357.61a9.017,9.017,0,0,0,9.249-8.765h0V111.371a9.017,9.017,0,0,0-9.249-8.766Z" transform="translate(-192.388 138.175)" fill="#fff"/>
        <path id="a2804879-ded6-4045-b20f-1f1dde9b938b" d="M382.3,508.971H327.676a.987.987,0,0,1-1.012-.959V495.172a.987.987,0,0,1,1.012-.959H382.3a.987.987,0,0,1,1.012.959v12.841A.987.987,0,0,1,382.3,508.971ZM327.676,494.6a.592.592,0,0,0-.607.575v12.841a.592.592,0,0,0,.607.575H382.3a.592.592,0,0,0,.607-.575V495.172a.592.592,0,0,0-.607-.575Z" transform="translate(-211.587 -180.934)"/>
        <ellipse id="b9ad11c9-d8a0-4df6-8741-900b9ec46a35" cx="4.248" cy="4.026" rx="4.248" ry="4.026" transform="translate(118.922 316.632)" fill="#e6e6e6"/>
        <path id="bd261eec-7ae0-49b0-bf26-57ff03972605" d="M415.4,519.573a.672.672,0,1,0,0,1.342h33.38a.672.672,0,1,0,.027-1.342H415.4Z" transform="translate(-282.418 -201.599)" fill="#e6e6e6"/>
        <path id="e80b4447-8c34-435b-ba6c-5300a190ab24" d="M415.4,541.321a.672.672,0,1,0,0,1.342h33.38a.672.672,0,1,0,.023-1.342H415.4Z" transform="translate(-282.418 -219.32)" fill="#e6e6e6"/>
        <path id="e55fcb7d-3a3b-45d8-b167-72fb2263dd92" d="M382.3,624.961H327.676a.987.987,0,0,1-1.012-.959V611.162a.987.987,0,0,1,1.012-.959H382.3a.987.987,0,0,1,1.012.959V624A.987.987,0,0,1,382.3,624.961Zm-54.622-14.375a.592.592,0,0,0-.607.575V624a.592.592,0,0,0,.607.575H382.3a.592.592,0,0,0,.607-.575V611.162a.592.592,0,0,0-.607-.575Z" transform="translate(-211.587 -275.451)"/>
        <ellipse id="a50d232f-7710-43e4-8fa9-6ef0443fc454" cx="4.248" cy="4.026" rx="4.248" ry="4.026" transform="translate(118.922 338.105)" fill="#e6e6e6"/>
        <path id="e49b4965-a9e9-4371-9134-194e44e65c31" d="M415.4,635.563a.672.672,0,1,0,0,1.342h33.38a.672.672,0,1,0,.023-1.342H415.4Z" transform="translate(-282.418 -296.115)" fill="#e6e6e6"/>
        <path id="abc4586a-ac92-4255-aae6-84f53baad571" d="M415.4,657.311a.672.672,0,1,0,0,1.342h33.38a.672.672,0,1,0,.023-1.342H415.4Z" transform="translate(-282.418 -313.837)" fill="#e6e6e6"/>
        <path id="a9e593af-a319-4e97-9065-f0c2c04624d5" d="M386.6,269.654c-10.61,0-19.215-8.144-19.219-18.2v-.015c0-.038,0-.078,0-.116.059-9.975,8.68-18.1,19.217-18.1,10.616,0,19.221,8.155,19.221,18.214s-8.6,18.214-19.219,18.214h0Zm0-36.045c-10.338.022-18.729,7.929-18.812,17.726,0,.041,0,.074,0,.1,0,9.851,8.425,17.835,18.817,17.835s18.817-7.984,18.817-17.833S397,233.609,386.606,233.609Z" transform="translate(-244.351 31.737)"/>
        <ellipse id="Ellipse_178" data-name="Ellipse 178" cx="7.814" cy="7.405" rx="7.814" ry="7.405" transform="translate(160.742 308.603)" fill="#fff"/>
        <path id="Path_989" data-name="Path 989" d="M560.7,510h-4.24a1.928,1.928,0,1,1,0-3.85h4.269A1.928,1.928,0,1,1,560.7,510Z" transform="translate(-394.855 -190.663)" fill="#c92815"/>
        <path id="Path_1002" data-name="Path 1002" d="M570.755,495.607a.762.762,0,0,1-.781-.741v-9.433h-9.767a.742.742,0,1,1,0-1.481h10.549a.762.762,0,0,1,.781.741v10.173a.762.762,0,0,1-.781.74Z" transform="translate(-398.878 -172.573)" fill="#c92815"/>
      </g>
      <g id="Group_2351" data-name="Group 2351">
        <path id="Path_990" data-name="Path 990" d="M625.816,570.029a1.479,1.479,0,0,1-.142-.284l-1.164-3.117a1.467,1.467,0,0,1,.86-1.885l25.977-9.7a1.467,1.467,0,0,1,1.885.86l1.164,3.117a1.465,1.465,0,0,1-.86,1.885l-25.977,9.7a1.467,1.467,0,0,1-1.743-.576Z" transform="translate(-545.622 -74.186) rotate(-11)" fill="#f3a15b"/>
        <path id="Path_991" data-name="Path 991" d="M703.909,551.494l-10.564,4.212a1.352,1.352,0,0,0-.923,1.623l1.226,4.908a1.352,1.352,0,0,0,1.888.9l10.593-4.986a1.355,1.355,0,0,0,.794-1.74l-1.273-4.12A1.355,1.355,0,0,0,703.909,551.494Z" transform="translate(-666.82 123.979) rotate(-24)" fill="#c92815"/>
        <path id="Path_992" data-name="Path 992" d="M792.593,583.607a1.467,1.467,0,0,1-1.554-.978L782,556.415a1.465,1.465,0,0,1,.907-1.863l3.145-1.085a1.466,1.466,0,0,1,1.863.907l9.042,26.213a1.467,1.467,0,0,1-.907,1.863l-3.145,1.085A1.479,1.479,0,0,1,792.593,583.607Z" transform="translate(-570.975 -210.33)" fill="#f3a15b"/>
        <path id="Path_993" data-name="Path 993" d="M788.758,552.643l3.47,10.83a1.352,1.352,0,0,1-.665,1.744L787,567.394a1.353,1.353,0,0,1-1.893-.887l-2.892-11.345a1.355,1.355,0,0,1,.837-1.72l3.988-1.638A1.355,1.355,0,0,1,788.758,552.643Z" transform="translate(-571.146 -209.047)" fill="#c92815"/>
        <path id="Path_994" data-name="Path 994" d="M748.423,706.759H745.1a1.467,1.467,0,0,1-1.465-1.465V677.564A1.467,1.467,0,0,1,745.1,676.1h3.327a1.467,1.467,0,0,1,1.465,1.465v27.729a1.467,1.467,0,0,1-1.465,1.465Z" transform="translate(-541.32 -305.381)" fill="#c92815"/>
        <path id="Path_995" data-name="Path 995" d="M777.615,706.759h-3.327a1.467,1.467,0,0,1-1.465-1.465V677.564a1.467,1.467,0,0,1,1.465-1.465h3.327a1.467,1.467,0,0,1,1.465,1.465v27.729A1.467,1.467,0,0,1,777.615,706.759Z" transform="translate(-563.932 -305.381)" fill="#c92815"/>
        <path id="Path_996" data-name="Path 996" d="M748.879,575.857H733.762a1.58,1.58,0,0,1-1.578-1.578V549.722a9.136,9.136,0,1,1,18.272,0V574.28A1.58,1.58,0,0,1,748.879,575.857Z" transform="translate(-532.453 -200.414)" fill="#152dc9"/>
        <path id="Path_997" data-name="Path 997" d="M790.1,574.87h-7.76V531.556l.144.039a10.251,10.251,0,0,1,7.616,9.848Z" transform="translate(-571.4 -193.419)" fill="#c92815"/>
        <path id="Path_998" data-name="Path 998" d="M733.99,574.87h-7.664V541.443a10.23,10.23,0,0,1,7.522-9.848l.142-.039Z" transform="translate(-527.916 -193.42)" fill="#c92815"/>
        <rect id="Rectangle_702" data-name="Rectangle 702" width="5" height="6" transform="translate(206 335)" fill="#f3a15b"/>
        <g id="Group_2348" data-name="Group 2348" transform="translate(-8.598 12.766)">
          <path id="Path_1001" data-name="Path 1001" d="M618.572,558.521a1.217,1.217,0,0,1-1.616-.592l-7-15.085a1.217,1.217,0,1,1,2.208-1.024l7,15.084A1.217,1.217,0,0,1,618.572,558.521Z" transform="translate(-431.041 -202.636)" fill="#3f3d56"/>
          <path id="Path_1003" data-name="Path 1003" d="M563.991,479.573a9.734,9.734,0,1,1,4.733-12.927A9.734,9.734,0,0,1,563.991,479.573Zm-7.169-15.452a7.3,7.3,0,1,0,9.7,3.55,7.3,7.3,0,0,0-9.7-3.55Z" transform="translate(-383.458 -138.773)" fill="#3f3d56"/>
        </g>
        <g id="Group_2347" data-name="Group 2347" transform="translate(-8 2)">
          <circle id="Ellipse_179" data-name="Ellipse 179" cx="12.064" cy="12.064" r="12.064" transform="translate(204.689 310.965)" fill="#f3a15b"/>
          <path id="Path_999" data-name="Path 999" d="M732.406,389.7s.676-18.709-8.115-12.623c0,0-5.072-17.019-17.469,8.453l-3.607,3.607s16.23-2.254,31.332,4.734Z" transform="translate(-502.014 -69.45)" fill="#c92815"/>
          <path id="Path_1000" data-name="Path 1000" d="M762.333,464.664a4.147,4.147,0,0,1-2.387-.568,1.833,1.833,0,0,1-.721-1.369,1.233,1.233,0,0,1,.419-1.013,1.592,1.592,0,0,1,1.505-.217l-.608-4.446.447-.061.715,5.227-.373-.171a1.365,1.365,0,0,0-1.395.012.792.792,0,0,0-.26.653,1.385,1.385,0,0,0,.537,1.021,3.729,3.729,0,0,0,2.134.482Z" transform="translate(-545.396 -135.661)" fill="#2f2e41"/>
          <rect id="Rectangle_700" data-name="Rectangle 700" width="2.428" height="0.451" transform="translate(210.508 321.773)" fill="#2f2e41"/>
          <rect id="Rectangle_701" data-name="Rectangle 701" width="2.428" height="0.451" transform="translate(218.172 321.773)" fill="#2f2e41"/>
        </g>
      </g>
    </g>
  </g>
</svg>
