<svg xmlns="http://www.w3.org/2000/svg" xmlns:xlink="http://www.w3.org/1999/xlink" width="360" height="640" viewBox="0 0 360 640">
  <defs>
    <clipPath id="clip-signup">
      <rect width="360" height="640"/>
    </clipPath>
  </defs>
  <g id="signup" clip-path="url(#clip-signup)">
    <rect width="360" height="640" fill="#fff"/>
    <text id="Already_have_an_account_Sign_in" data-name="Already have an account? Sign in" transform="translate(62 586)" fill="#c92815" font-size="16" font-family="SegoeUI, Segoe UI"><tspan x="0" y="0" fill="#000">Already have an account?</tspan><tspan y="0" fill="#c92815"> </tspan><tspan y="0" fill="#c92815" font-family="SegoeUI-Bold, Segoe UI" font-weight="700">Sign in</tspan></text>
    <g id="signup_button" data-name="signup button" transform="translate(0 57)">
      <g id="Group_1936" data-name="Group 1936" transform="translate(0 255)">
        <rect id="Rectangle_604" data-name="Rectangle 604" width="307" height="46" rx="23" transform="translate(27 196)" fill="#720c03" opacity="0.59"/>
        <rect id="Rectangle_603" data-name="Rectangle 603" width="307" height="46" rx="23" transform="translate(27 196)" fill="#c92c27"/>
        <rect id="Rectangle_602" data-name="Rectangle 602" width="307" height="46" rx="23" transform="translate(27 196)" fill="#c92815"/>
      </g>
      <text id="Sign_up" data-name="Sign up" transform="translate(142 484)" fill="#d4d0d3" font-size="23" font-family="SegoeUI, Segoe UI"><tspan x="0" y="0">Sign up</tspan></text>
    </g>
    <g id="confirm_password" data-name="confirm password" transform="translate(0 64)">
      <line id="Line_42" data-name="Line 42" x2="288" transform="translate(36.5 409.5)" fill="none" stroke="#707070" stroke-width="1"/>
      <text id="Confirm_Password-2" data-name="Confirm Password" transform="translate(47 405)" fill="#707070" font-size="20" font-family="SegoeUI, Segoe UI"><tspan x="0" y="0">Confirm Password</tspan></text>
    </g>
    <g id="password" transform="translate(0 71)">
      <line id="Line_51" data-name="Line 51" x2="288" transform="translate(36.5 341.5)" fill="none" stroke="#707070" stroke-width="1"/>
      <text id="Password-2" data-name="Password" transform="translate(47 337)" fill="#707070" font-size="20" font-family="SegoeUI, Segoe UI"><tspan x="0" y="0">Password</tspan></text>
    </g>
    <g id="email_id" data-name="email id" transform="translate(0 78)">
      <line id="Line_39" data-name="Line 39" x2="288" transform="translate(36.5 273.5)" fill="none" stroke="#707070" stroke-width="1"/>
      <text id="Email_ID-2" data-name="Email ID" transform="translate(47 269)" fill="#707070" font-size="20" font-family="SegoeUI, Segoe UI"><tspan x="0" y="0">Email ID</tspan></text>
    </g>
    <g id="phone_no" data-name="phone no" transform="translate(0 17)">
      <line id="Line_39-2" data-name="Line 39" x2="288" transform="translate(36.5 273.5)" fill="none" stroke="#707070" stroke-width="1"/>
      <text id="Phone_No-2" data-name="Phone No" transform="translate(47 269)" fill="#707070" font-size="20" font-family="SegoeUI, Segoe UI"><tspan x="0" y="0">Phone No</tspan></text>
    </g>
    <g id="first_name" data-name="first name" transform="translate(0 92)">
      <line id="Line_41" data-name="Line 41" x2="288" transform="translate(36.5 137.5)" fill="none" stroke="#707070" stroke-width="1"/>
      <text id="Your_Name" data-name="Your Name" transform="translate(47 133)" fill="#707070" font-size="20" font-family="SegoeUI, Segoe UI"><tspan x="0" y="0">Your Name</tspan></text>
    </g>
    <text id="_Please_create_a_new_account" data-name=" Please create a new account" transform="translate(180 163)" fill="#c92815" font-size="25" font-family="SegoeUI, Segoe UI"><tspan x="-158.295" y="0" xml:space="preserve"> Please create a new account</tspan></text>
    <g id="back" transform="translate(11.9 -14.063)">
      <g id="Group_1964" data-name="Group 1964" transform="translate(0 31.842)">
        <path id="Path_445" data-name="Path 445" d="M34.87,43.194a3.1,3.1,0,0,0-.459-.029H8.237l.571-.227a5.388,5.388,0,0,0,1.5-.906l7.34-6.263a2.1,2.1,0,0,0,.385-3,2.962,2.962,0,0,0-3.71-.489,2.6,2.6,0,0,0-.272.195L.778,43.8a2.038,2.038,0,0,0,0,3.2l0,0L14.051,58.33a2.987,2.987,0,0,0,3.754,0,2.426,2.426,0,0,0,.228-.222,2.1,2.1,0,0,0-.385-3l-7.326-6.274A5.357,5.357,0,0,0,8.994,48L8.2,47.7H34.265a2.689,2.689,0,0,0,2.8-1.9A2.336,2.336,0,0,0,34.87,43.194Z" transform="translate(0 -31.842)" fill="#c92815"/>
      </g>
    </g>
    <g id="Logo" transform="translate(-4.792 -91.801)">
      <g id="Group_2075" data-name="Group 2075" transform="translate(159.956 110.025)">
        <rect id="Rectangle_659" data-name="Rectangle 659" width="47" height="40" rx="11" transform="translate(3.836 14.776)" fill="#c92815"/>
        <rect id="Rectangle_662" data-name="Rectangle 662" width="18.71" height="7.878" rx="3.939" transform="matrix(0.788, 0.616, -0.616, 0.788, 15.968, 1.887)" fill="#152dc9"/>
        <rect id="Rectangle_663" data-name="Rectangle 663" width="20.187" height="9.355" rx="4.678" transform="translate(24.442 14.764) rotate(-47)" fill="#152dc9"/>
        <rect id="Rectangle_664" data-name="Rectangle 664" width="13" height="29" transform="translate(20.836 25.776)" fill="#152dc9"/>
        <path id="Path_607" data-name="Path 607" d="M6.8,0H47.59a6.846,6.846,0,0,1,6.8,6.893v7.152H0V6.893A6.846,6.846,0,0,1,6.8,0Z" transform="translate(0 11.805)" fill="#fdbf00"/>
        <rect id="Rectangle_665" data-name="Rectangle 665" width="13" height="14" transform="translate(20.836 11.776)" fill="#152dc9"/>
      </g>
      <g id="Group_2074" data-name="Group 2074" transform="translate(130.292 140.844)">
        <g id="Path_608" data-name="Path 608" transform="translate(0 51.303) rotate(-31)" fill="#f3a15b">
          <path d="M 66.07675170898438 46.92839050292969 C 60.96519088745117 46.92843246459961 56.90449523925781 46.5237922668457 54.0074577331543 45.72571182250977 C 50.22572326660156 44.68389892578125 46.47009658813477 42.72688674926758 42.52597808837891 39.74281692504883 C 39.10914993286133 37.15769958496094 36.14519119262695 34.26060485839844 33.53013610839844 31.70455169677734 C 30.61503028869629 28.8552188873291 28.31250953674316 26.6046314239502 26.36241722106934 25.71929931640625 C 25.11164283752441 25.15144538879395 23.07651138305664 24.87540435791016 20.14073753356934 24.87540435791016 C 13.10174083709717 24.87540435791016 3.024540901184082 26.54011917114258 0.5000037550926208 26.97728729248047 L 0.5000037550926208 0.526845395565033 L 24.96121788024902 1.806365013122559 L 25.05257797241211 1.811138391494751 L 25.13969802856445 1.783258438110352 C 25.17447090148926 1.772165060043335 28.6818962097168 0.6684050559997559 32.92707061767578 0.6684050559997559 C 34.98392486572266 0.6684050559997559 36.88579177856445 0.9250050783157349 38.57983016967773 1.431085109710693 C 40.62900543212891 2.043245077133179 42.39207077026367 3.028298377990723 43.8200569152832 4.358858585357666 C 50.66019058227539 10.73228549957275 52.07565689086914 14.37321853637695 52.08916473388672 14.40925884246826 L 52.17221832275391 14.63095188140869 L 52.39694976806641 14.7087516784668 C 52.42600250244141 14.71863174438477 55.3421516418457 15.71668529510498 58.74285888671875 17.38669776916504 C 63.20541763305664 19.57817840576172 66.47495269775391 21.92567253112793 68.19799041748047 24.17539215087891 C 69.57602691650391 25.97465896606445 70.32138061523438 28.14605903625488 70.41333770751953 30.62928581237793 C 70.4892578125 32.67940521240234 70.10471343994141 34.48587036132813 69.76873779296875 35.64029693603516 L 70.72268676757813 35.93953704833984 L 71.06656646728516 34.91801452636719 C 71.98062896728516 34.83477020263672 74.76503753662109 34.60964584350586 78.13671112060547 34.60964584350586 C 79.97520446777344 34.60964584350586 81.72256469726563 34.67605972290039 83.33028411865234 34.80704498291016 C 84.53624725341797 34.90530014038086 85.58116149902344 34.97501754760742 86.50308227539063 35.03653717041016 C 90.42494964599609 35.2982063293457 92.21491241455078 35.41764450073242 95.56803131103516 37.02128601074219 C 98.82607269287109 38.57947158813477 99.10649108886719 42.41182327270508 99.10986328125 43.63750076293945 C 96.31742095947266 44.12074279785156 79.50973510742188 46.92829513549805 66.07675170898438 46.92839050292969 Z M 52.00592422485352 25.5329647064209 L 51.49088287353516 26.39013862609863 L 63.70952224731445 33.73184585571289 L 69.62793731689453 37.28797912597656 L 70.14297485351563 36.43080520629883 L 52.00592422485352 25.5329647064209 Z" stroke="none"/>
          <path d="M 1 1.053684234619141 L 1 26.38283538818359 C 4.246315002441406 25.83022689819336 13.43031311035156 24.37540435791016 20.14073944091797 24.37540435791016 C 23.14929962158203 24.37540435791016 25.25204467773438 24.66607093811035 26.56910705566406 25.26401901245117 C 28.59918975830078 26.18567085266113 30.92942810058594 28.46335220336914 33.87963104248047 31.34699249267578 C 36.48408508300781 33.89268493652344 39.43603134155273 36.77804565429688 42.82764434814453 39.34408569335938 C 46.7203254699707 42.28921890258789 50.42071151733398 44.21899032592773 54.14024353027344 45.24367141723633 C 56.9938850402832 46.02979278564453 61.00989532470703 46.42839050292969 66.07675170898438 46.42839050292969 C 78.90744018554688 46.42839050292969 94.83994293212891 43.85666275024414 98.60047149658203 43.21753311157227 C 98.53140258789063 41.79400253295898 98.056396484375 38.7656135559082 95.35228729248047 37.47235107421875 C 92.0858154296875 35.91013717651367 90.44176483154297 35.80044555664063 86.46980285644531 35.53543090820313 C 85.54616546630859 35.47380447387695 84.49929809570313 35.40395355224609 83.28968811035156 35.30538940429688 C 81.69520568847656 35.17548370361328 79.96149444580078 35.1096305847168 78.13672637939453 35.10964584350586 C 75.11759185791016 35.10967254638672 72.57229614257813 35.29131698608398 71.43608093261719 35.38751983642578 L 71.20309448242188 36.07962417602539 C 70.99429321289063 36.79377365112305 70.81666564941406 37.22441482543945 70.80913543701172 37.2425537109375 L 70.36470031738281 38.31398010253906 L 69.37041473388672 37.7165641784668 L 63.45200347900391 34.16043090820313 L 51.23336410522461 26.8187255859375 L 52.26344299316406 25.10437774658203 L 69.32926177978516 35.35855484008789 C 69.64437866210938 34.23635864257813 69.98408508300781 32.54916763305664 69.91366577148438 30.64781761169434 C 69.82563018798828 28.27015113830566 69.11483001708984 26.19479179382324 67.801025390625 24.47940444946289 C 63.70569610595703 19.13224411010742 52.35009765625 15.22097778320313 52.23603057861328 15.18215179443359 L 51.78065872192383 15.03807067871094 L 51.62031555175781 14.58313369750977 C 51.57127380371094 14.45981216430664 50.10924530029297 10.9023551940918 43.47920227050781 4.72467041015625 C 40.94636535644531 2.364646911621094 37.39613723754883 1.16815185546875 32.9271240234375 1.168403625488281 C 28.76734924316406 1.168643951416016 25.32560729980469 2.248805999755859 25.29200744628906 2.259498596191406 L 25.11777496337891 2.315231323242188 L 24.93509674072266 2.305686950683594 L 1 1.053684234619141 M 0 3.814697265625e-06 L 24.98733520507813 1.307044982910156 C 24.98733520507813 1.307044982910156 28.54612731933594 0.1686592102050781 32.92706298828125 0.1684074401855469 C 36.63462066650391 0.1681938171386719 40.93059158325195 0.983123779296875 44.16091156005859 3.993045806884766 C 51.20827102661133 10.55956649780273 52.55794906616211 14.23537826538086 52.55794906616211 14.23537826538086 C 52.55794906616211 14.23537826538086 64.2630615234375 18.21535110473633 68.59494018554688 23.87136459350586 C 71.91786956787109 28.21002578735352 70.90217590332031 33.53498077392578 70.24880218505859 35.78005599975586 L 69.88545989990234 36.85939025878906 L 51.74840545654297 25.96155166625977 L 63.96704483032227 33.30325698852539 L 69.88545989990234 36.85939025878906 C 69.88545989990234 36.85939025878906 70.0504150390625 36.46172332763672 70.24880218505859 35.78005599975586 L 70.69615173339844 34.45119094848633 C 70.69615173339844 34.45119094848633 73.94387817382813 34.10968017578125 78.13671875 34.10964202880859 C 79.7823486328125 34.10962677001953 81.57298278808594 34.16221237182617 83.37088012695313 34.30870056152344 C 89.74958038330078 34.82840728759766 91.54507446289063 34.54304504394531 95.78373718261719 36.57021713256836 C 100.0224075317383 38.59739303588867 99.59877777099609 44.05940628051758 99.59877777099609 44.05940628051758 C 99.59877777099609 44.05940628051758 80.91653442382813 47.42839813232422 66.07675170898438 47.42839813232422 C 61.38918304443359 47.42839813232422 57.085693359375 47.09233856201172 53.87465667724609 46.2077522277832 C 40.49820327758789 42.52275085449219 31.46370697021484 28.58439254760742 26.15572357177734 26.1745777130127 C 24.8802490234375 25.59550857543945 22.7059326171875 25.37540054321289 20.14073944091797 25.37540054321289 C 12.03077697753906 25.37540054321289 0 27.57313919067383 0 27.57313919067383 L 0 3.814697265625e-06 Z" stroke="none" fill="#707070"/>
        </g>
        <g id="Path_609" data-name="Path 609" transform="matrix(0.848, -0.53, 0.53, 0.848, 74.938, 39.595)" fill="#f3a15b">
          <path d="M 18.82394981384277 6.280945301055908 L 0.5445398092269897 5.565483570098877 L 0.9678293466567993 0.801256000995636 L 8.801774024963379 0.652015745639801 L 8.83436393737793 0.6513957977294922 L 8.866594314575195 0.6465457677841187 C 8.876203536987305 0.6451157927513123 9.861523628234863 0.4999957680702209 11.15491390228271 0.4999957680702209 C 12.58602428436279 0.4999957680702209 14.57684421539307 0.6780057549476624 15.93396377563477 1.526025772094727 C 17.77860641479492 2.678695440292358 18.5548038482666 5.144455432891846 18.82394981384277 6.280945301055908 Z" stroke="none"/>
          <path d="M 11.15491390228271 0.9999957084655762 C 9.903484344482422 0.9999957084655762 8.949644088745117 1.139695644378662 8.940943717956543 1.14098596572876 L 8.876474380493164 1.150685787200928 L 8.811304092407227 1.151925563812256 L 1.426145553588867 1.292616367340088 L 1.089075088500977 5.086421489715576 L 18.16611099243164 5.754822254180908 C 17.81253433227539 4.576781272888184 17.07549476623535 2.82892894744873 15.66900444030762 1.950055599212646 C 14.67434406280518 1.328516006469727 13.11339378356934 0.9999957084655762 11.15491390228271 0.9999957084655762 M 11.15490913391113 4.76837158203125e-07 C 12.72988128662109 4.76837158203125e-07 14.76611137390137 0.2066864967346191 16.19892501831055 1.102005958557129 C 18.86081314086914 2.765345811843872 19.43980407714844 6.805435657501221 19.43980407714844 6.805435657501221 L 3.814697265625e-06 6.0445556640625 L 0.5095138549804688 0.3098959922790527 L 8.792253494262695 0.1521058082580566 C 8.792253494262695 0.1521058082580566 9.803886413574219 4.76837158203125e-07 11.15490913391113 4.76837158203125e-07 Z" stroke="none" fill="#707070"/>
        </g>
        <g id="Path_610" data-name="Path 610" transform="translate(66.099 35.454) rotate(-34)" fill="#f3a15b">
          <path d="M 15.51400279998779 8.45982837677002 L 5.611267566680908 8.221826553344727 C 5.441803455352783 7.398685932159424 4.976413726806641 5.488448143005371 4.027514934539795 3.778230905532837 C 3.370375633239746 2.593848943710327 2.384086608886719 1.507822751998901 1.591597437858582 0.7403786182403564 L 8.139504432678223 1.707010865211487 L 8.16147518157959 1.710250854492188 L 8.183645248413086 1.711540818214417 C 8.208925247192383 1.713080883026123 10.8128547668457 1.891600847244263 12.65511512756348 3.674040794372559 C 14.04797458648682 5.021660804748535 15.0678186416626 7.323773384094238 15.51400279998779 8.45982837677002 Z" stroke="none"/>
          <path d="M 2.956235885620117 1.447253227233887 C 3.503067970275879 2.069430828094482 4.047025680541992 2.782816410064697 4.464724540710449 3.535650730133057 C 5.315224647521973 5.068511009216309 5.789914131164551 6.755171775817871 6.015407562255859 7.731400966644287 L 14.76048469543457 7.941579341888428 C 14.25059509277344 6.765230178833008 13.39636421203613 5.086932182312012 12.30744457244873 4.03338098526001 C 10.60560417175293 2.386800765991211 8.175814628601074 2.212080955505371 8.154765129089355 2.210700988769531 L 8.110424995422363 2.208130836486816 L 8.066484451293945 2.201650619506836 L 2.956235885620117 1.447253227233887 M -5.7220458984375e-06 9.5367431640625e-07 L 8.2125244140625 1.212370872497559 C 8.2125244140625 1.212370872497559 10.99637413024902 1.373440742492676 13.00278472900391 3.314701080322266 C 15.00919532775879 5.255950927734375 16.23814392089844 8.977380752563477 16.23814392089844 8.977380752563477 L 5.194994926452637 8.711971282958984 C 5.194994926452637 8.711971282958984 4.786435127258301 6.176620960235596 3.590304374694824 4.020811080932617 C 2.394174575805664 1.86500072479248 -5.7220458984375e-06 9.5367431640625e-07 -5.7220458984375e-06 9.5367431640625e-07 Z" stroke="none" fill="#707070"/>
        </g>
      </g>
    </g>
  </g>
</svg>
