<svg xmlns="http://www.w3.org/2000/svg" xmlns:xlink="http://www.w3.org/1999/xlink" width="360" height="640" viewBox="0 0 360 640">
  <defs>
    <clipPath id="clip-upi">
      <rect width="360" height="640"/>
    </clipPath>
  </defs>
  <g id="upi" clip-path="url(#clip-upi)">
    <rect width="360" height="640" fill="#fff"/>
    <rect id="Rectangle_615" data-name="Rectangle 615" width="360" height="68" transform="translate(-1)" fill="#c92815"/>
    <g id="back" transform="translate(15.9 -11.063)">
      <g id="Group_1964" data-name="Group 1964" transform="translate(0 31.842)">
        <path id="Path_445" data-name="Path 445" d="M34.87,43.194a3.1,3.1,0,0,0-.459-.029H8.237l.571-.227a5.388,5.388,0,0,0,1.5-.906l7.34-6.263a2.1,2.1,0,0,0,.385-3,2.962,2.962,0,0,0-3.71-.489,2.6,2.6,0,0,0-.272.195L.778,43.8a2.038,2.038,0,0,0,0,3.2l0,0L14.051,58.33a2.987,2.987,0,0,0,3.754,0,2.426,2.426,0,0,0,.228-.222,2.1,2.1,0,0,0-.385-3l-7.326-6.274A5.357,5.357,0,0,0,8.994,48L8.2,47.7H34.265a2.689,2.689,0,0,0,2.8-1.9A2.336,2.336,0,0,0,34.87,43.194Z" transform="translate(0 -31.842)" fill="#fff"/>
      </g>
    </g>
    <text id="Payment" transform="translate(180 48)" fill="#f8f4f7" font-size="34" font-family="SegoeUI, Segoe UI"><tspan x="-64.729" y="0">Payment</tspan></text>
    <text id="UPI-2" data-name="UPI" transform="translate(53 134)" fill="#c92815" font-size="26" font-family="SegoeUI, Segoe UI"><tspan x="-19.671" y="0">UPI</tspan></text>
    <g id="Group_2181" data-name="Group 2181">
      <text id="Pay_using_UPI_ID" data-name="Pay using UPI ID" transform="translate(102 195)" fill="#707070" font-size="19" font-family="SegoeUI, Segoe UI"><tspan x="-68.476" y="0">Pay using UPI ID</tspan></text>
      <g id="Rectangle_673" data-name="Rectangle 673" transform="translate(9 204)" fill="#fff" stroke="#c92815" stroke-width="1">
        <rect width="343" height="124" stroke="none"/>
        <rect x="0.5" y="0.5" width="342" height="123" fill="none"/>
      </g>
      <g id="Group_2174" data-name="Group 2174" transform="translate(8 -162)">
        <g id="Group_2159" data-name="Group 2159" transform="translate(20 230)">
          <text id="UPI-3" data-name="UPI" transform="translate(73 169)" fill="#c92815" font-size="26" font-family="SegoeUI, Segoe UI"><tspan x="-19.671" y="0">UPI</tspan></text>
          <text id="Google_Pay_BHIM_PhonePe_More" data-name="Google Pay, BHIM, PhonePe &amp; More" transform="translate(165 191)" fill="rgba(0,5,7,0.99)" font-size="14" font-family="SegoeUI, Segoe UI"><tspan x="-111.877" y="0">Google Pay, BHIM, PhonePe &amp; More</tspan></text>
        </g>
        <g id="Group_2173" data-name="Group 2173" transform="translate(-74 -48)">
          <g id="triangle" transform="translate(104.345 428.044)">
            <g id="Group_2164" data-name="Group 2164" transform="translate(0 0)">
              <path id="Path_629" data-name="Path 629" d="M33.156,24.419,19.254,1.4a2.893,2.893,0,0,0-4.96,0L.418,24.42v0A2.892,2.892,0,0,0,2.9,28.8h27.78A2.892,2.892,0,0,0,33.156,24.419Zm-2.479,2.416H2.9a.925.925,0,0,1-.795-1.4L15.979,2.417a.925.925,0,0,1,1.589,0l13.9,23.014A.925.925,0,0,1,30.678,26.835Z" transform="translate(28.802 0) rotate(90)" fill="rgba(0,5,7,0.99)"/>
            </g>
          </g>
          <g id="triangle-2" data-name="triangle" transform="translate(89.956 428.044)">
            <g id="Group_2164-2" data-name="Group 2164" transform="translate(0 0)">
              <path id="Path_629-2" data-name="Path 629" d="M33.156,24.419,19.254,1.4a2.893,2.893,0,0,0-4.96,0L.418,24.42v0A2.892,2.892,0,0,0,2.9,28.8h27.78A2.892,2.892,0,0,0,33.156,24.419Zm-2.479,2.416H2.9a.925.925,0,0,1-.795-1.4L15.979,2.417a.925.925,0,0,1,1.589,0l13.9,23.014A.925.925,0,0,1,30.678,26.835Z" transform="translate(28.802 0) rotate(90)" fill="rgba(0,5,7,0.99)"/>
            </g>
          </g>
        </g>
      </g>
      <text id="Enter_your_UPI_ID" data-name="Enter your UPI ID" transform="translate(155 299)" fill="#707070" font-size="19" font-family="SegoeUI, Segoe UI"><tspan x="-71.885" y="0">Enter your UPI ID</tspan></text>
      <line id="Line_63" data-name="Line 63" x2="236" transform="translate(78.5 308.5)" fill="none" stroke="#707070" stroke-width="1"/>
    </g>
  </g>
</svg>
