<svg xmlns="http://www.w3.org/2000/svg" xmlns:xlink="http://www.w3.org/1999/xlink" width="360" height="640" viewBox="0 0 360 640">
  <defs>
    <clipPath id="clip-view_list">
      <rect width="360" height="640"/>
    </clipPath>
  </defs>
  <g id="view_list" data-name="view list" clip-path="url(#clip-view_list)">
    <rect width="360" height="640" fill="#fff"/>
    <g id="user_s_wishlist" data-name="user&apos;s wishlist">
      <text id="User_s_Wishlist-2" data-name="User&apos;s Wishlist" transform="translate(114 237)" fill="rgba(0,5,7,0.99)" font-size="21" font-family="SegoeUI, Segoe UI"><tspan x="-66.404" y="0">User&apos;s Wishlist</tspan></text>
      <g id="list" transform="translate(-31.037 212)">
        <g id="Group_2056" data-name="Group 2056" transform="translate(47.037 0)">
          <g id="Group_2055" data-name="Group 2055">
            <path id="Path_572" data-name="Path 572" d="M68.447,4.091H65.622V2.827c0-.409-.446-.595-.855-.595H62.574A3.325,3.325,0,0,0,59.266,0a3.382,3.382,0,0,0-3.308,2.23H53.8c-.409,0-.818.186-.818.595V4.091H50.159A3.159,3.159,0,0,0,47.037,7.1V28.4a2.991,2.991,0,0,0,3.122,2.825H68.447A2.991,2.991,0,0,0,71.569,28.4V7.1A3.159,3.159,0,0,0,68.447,4.091ZM54.471,3.72h2.044a.818.818,0,0,0,.706-.669,2.156,2.156,0,0,1,2.044-1.673A2.119,2.119,0,0,1,61.273,3.05a.818.818,0,0,0,.743.669h2.119V6.693H54.471ZM70.082,28.4a1.508,1.508,0,0,1-1.635,1.338H50.159A1.508,1.508,0,0,1,48.524,28.4V7.1a1.673,1.673,0,0,1,1.635-1.524h2.825v1.9a.781.781,0,0,0,.818.706H64.767a.818.818,0,0,0,.855-.706v-1.9h2.825A1.673,1.673,0,0,1,70.082,7.1V28.4Z" transform="translate(-47.037 0)"/>
            <path id="Path_573" data-name="Path 573" d="M105.061,230.543a.743.743,0,0,0-1.041-.037l-2.379,2.267-1-1.041A.743.743,0,0,0,99.6,231.7a.781.781,0,0,0,0,1.078l1.524,1.561a.669.669,0,0,0,.52.223.743.743,0,0,0,.52-.223l2.9-2.751a.706.706,0,0,0,.043-1Q105.083,230.564,105.061,230.543Z" transform="translate(-95.657 -213.926)"/>
            <path id="Path_574" data-name="Path 574" d="M207.84,256.034h-8.549a.743.743,0,0,0,0,1.487h8.549a.743.743,0,1,0,0-1.487Z" transform="translate(-187.769 -237.819)"/>
            <path id="Path_575" data-name="Path 575" d="M105.061,146.951a.743.743,0,0,0-1.041-.037l-2.379,2.267-1-1.041A.743.743,0,0,0,99.6,148.1a.781.781,0,0,0,0,1.078l1.524,1.561a.669.669,0,0,0,.52.223.743.743,0,0,0,.52-.223l2.9-2.751a.706.706,0,0,0,.043-1Q105.083,146.972,105.061,146.951Z" transform="translate(-95.657 -136.281)"/>
            <path id="Path_576" data-name="Path 576" d="M207.84,172.442h-8.549a.743.743,0,0,0,0,1.487h8.549a.743.743,0,1,0,0-1.487Z" transform="translate(-187.769 -160.174)"/>
            <path id="Path_577" data-name="Path 577" d="M105.061,314.135a.743.743,0,0,0-1.041-.037l-2.379,2.267-1-1.041a.743.743,0,0,0-1.041-.037.781.781,0,0,0,0,1.078l1.524,1.561a.669.669,0,0,0,.52.223.743.743,0,0,0,.52-.223l2.9-2.751a.706.706,0,0,0,.043-1Q105.083,314.155,105.061,314.135Z" transform="translate(-95.657 -291.57)"/>
            <path id="Path_578" data-name="Path 578" d="M207.84,339.626h-8.549a.743.743,0,0,0,0,1.487h8.549a.743.743,0,1,0,0-1.487Z" transform="translate(-187.769 -315.464)"/>
          </g>
        </g>
      </g>
    </g>
    <line id="Line_65" data-name="Line 65" x2="359" transform="translate(1.5 200.5)" fill="none" stroke="#c92815" stroke-width="1"/>
    <rect id="Rectangle_640" data-name="Rectangle 640" width="145" height="8" transform="translate(0 193)" fill="#c92815"/>
    <text id="Your_Lists" data-name="Your Lists" transform="translate(72 180)" fill="#c92815" font-size="27" font-family="SegoeUI, Segoe UI"><tspan x="-55.872" y="0">Your Lists</tspan></text>
    <g id="create_wishlist" data-name="create wishlist" transform="translate(0 96)">
      <text id="_Create_a_Wishlist" data-name="+ Create a Wishlist" transform="translate(278 19)" fill="#152dc9" font-size="18" font-family="SegoeUI, Segoe UI"><tspan x="-74.602" y="0">+ Create a Wishlist</tspan></text>
      <g id="Group_2054" data-name="Group 2054" transform="translate(0 -96)">
        <rect id="Rectangle_641" data-name="Rectangle 641" width="360" height="226" transform="translate(0 414)" fill="#fff"/>
        <text id="List_name" data-name="List name" transform="translate(58 486)" fill="rgba(0,5,7,0.99)" font-size="19" font-family="SegoeUI, Segoe UI"><tspan x="-39.985" y="0">List name</tspan></text>
        <text id="Create_a_new_list" data-name="Create a new list" transform="translate(93 445)" fill="#c41d18" font-size="24" font-family="SegoeUI, Segoe UI"><tspan x="-87" y="0">Create a new list</tspan></text>
        <g id="Group_2210" data-name="Group 2210">
          <g id="Group_1947" data-name="Group 1947" transform="translate(0 380)">
            <rect id="Rectangle_604" data-name="Rectangle 604" width="307" height="46" rx="23" transform="translate(27 196)" fill="#720c03" opacity="0.59"/>
            <rect id="Rectangle_603" data-name="Rectangle 603" width="307" height="46" rx="23" transform="translate(27 196)" fill="#c92c27"/>
            <rect id="Rectangle_602" data-name="Rectangle 602" width="307" height="46" rx="23" transform="translate(27 196)" fill="#c92815"/>
          </g>
          <text id="Create_List" data-name="Create List" transform="translate(174 609)" fill="#f8f4f7" font-size="24" font-family="SegoeUI, Segoe UI"><tspan x="-55.324" y="0">Create List</tspan></text>
        </g>
        <text id="Use_lists_to_save_items_for_later." data-name="Use lists to save items for later." transform="translate(156 557)" fill="rgba(0,5,7,0.99)" font-size="18" font-family="SegoeUI, Segoe UI" opacity="0.78"><tspan x="-122.607" y="0">Use lists to save items for later.</tspan></text>
        <path id="close" d="M15.3,11.5l7.115-7.115a2.012,2.012,0,0,0,0-2.846L21.462.591a2.011,2.011,0,0,0-2.846,0L11.5,7.706,4.386.59A2.012,2.012,0,0,0,1.54.59l-.95.949a2.012,2.012,0,0,0,0,2.846L7.707,11.5.591,18.616a2.011,2.011,0,0,0,0,2.846l.949.949a2.012,2.012,0,0,0,2.846,0L11.5,15.295l7.115,7.115a2.012,2.012,0,0,0,2.846,0l.949-.949a2.012,2.012,0,0,0,0-2.846Zm0,0" transform="translate(324 424)"/>
        <g id="Group_2211" data-name="Group 2211">
          <g id="Group_2035" data-name="Group 2035" transform="translate(1 335)">
            <g id="Group_2033" data-name="Group 2033" transform="translate(6.939 162)">
              <g id="Rectangle_637" data-name="Rectangle 637" transform="translate(0.061)" fill="#fdbf00" stroke="#fdbf00" stroke-width="1" opacity="0.9">
                <rect width="344" height="38" rx="19" stroke="none"/>
                <rect x="0.5" y="0.5" width="343" height="37" rx="18.5" fill="none"/>
              </g>
              <g id="Rectangle_639" data-name="Rectangle 639" transform="translate(0.061)" fill="#fdbf00" stroke="#fdbf00" stroke-width="1">
                <rect width="344" height="38" rx="19" stroke="none"/>
                <rect x="0.5" y="0.5" width="343" height="37" rx="18.5" fill="none"/>
              </g>
              <g id="Rectangle_638" data-name="Rectangle 638" transform="translate(0.061)" fill="#fff" stroke="#c92815" stroke-width="1">
                <rect width="344" height="38" rx="19" stroke="none"/>
                <rect x="0.5" y="0.5" width="343" height="37" rx="18.5" fill="none"/>
              </g>
            </g>
          </g>
          <text id="List_name-2" data-name="List name" transform="translate(77 523)" fill="#c41d18" font-size="24" font-family="SegoeUI, Segoe UI" opacity="0.72"><tspan x="-50.508" y="0">List name</tspan></text>
        </g>
      </g>
    </g>
    <text id="Wishlist" transform="translate(72 118)" fill="#c92815" font-size="33" font-family="SegoeUI, Segoe UI"><tspan x="-56.332" y="0">Wishlist</tspan></text>
    <rect id="Rectangle_615" data-name="Rectangle 615" width="360" height="68" transform="translate(-1)" fill="#c92815"/>
    <text id="GIFT_GALLERY" data-name="GIFT GALLERY" transform="translate(90 46)" fill="#f8f4f7" font-size="33" font-family="CurlzMT, Curlz MT"><tspan x="0" y="0">GIFT GALLERY</tspan></text>
    <g id="back" transform="translate(15.9 -11.063)">
      <g id="Group_1964" data-name="Group 1964" transform="translate(0 31.842)">
        <path id="Path_445" data-name="Path 445" d="M34.87,43.194a3.1,3.1,0,0,0-.459-.029H8.237l.571-.227a5.388,5.388,0,0,0,1.5-.906l7.34-6.263a2.1,2.1,0,0,0,.385-3,2.962,2.962,0,0,0-3.71-.489,2.6,2.6,0,0,0-.272.195L.778,43.8a2.038,2.038,0,0,0,0,3.2l0,0L14.051,58.33a2.987,2.987,0,0,0,3.754,0,2.426,2.426,0,0,0,.228-.222,2.1,2.1,0,0,0-.385-3l-7.326-6.274A5.357,5.357,0,0,0,8.994,48L8.2,47.7H34.265a2.689,2.689,0,0,0,2.8-1.9A2.336,2.336,0,0,0,34.87,43.194Z" transform="translate(0 -31.842)" fill="#f8f4f7"/>
      </g>
    </g>
  </g>
</svg>
