<svg xmlns="http://www.w3.org/2000/svg" xmlns:xlink="http://www.w3.org/1999/xlink" width="360" height="640" viewBox="0 0 360 640">
  <defs>
    <clipPath id="clip-wallet">
      <rect width="360" height="640"/>
    </clipPath>
  </defs>
  <g id="wallet" clip-path="url(#clip-wallet)">
    <rect width="360" height="640" fill="#fff"/>
    <rect id="Rectangle_615" data-name="Rectangle 615" width="360" height="68" transform="translate(-1)" fill="#c92815"/>
    <g id="back" transform="translate(15.9 -11.063)">
      <g id="Group_1964" data-name="Group 1964" transform="translate(0 31.842)">
        <path id="Path_445" data-name="Path 445" d="M34.87,43.194a3.1,3.1,0,0,0-.459-.029H8.237l.571-.227a5.388,5.388,0,0,0,1.5-.906l7.34-6.263a2.1,2.1,0,0,0,.385-3,2.962,2.962,0,0,0-3.71-.489,2.6,2.6,0,0,0-.272.195L.778,43.8a2.038,2.038,0,0,0,0,3.2l0,0L14.051,58.33a2.987,2.987,0,0,0,3.754,0,2.426,2.426,0,0,0,.228-.222,2.1,2.1,0,0,0-.385-3l-7.326-6.274A5.357,5.357,0,0,0,8.994,48L8.2,47.7H34.265a2.689,2.689,0,0,0,2.8-1.9A2.336,2.336,0,0,0,34.87,43.194Z" transform="translate(0 -31.842)" fill="#fff"/>
      </g>
    </g>
    <text id="Payment" transform="translate(180 48)" fill="#f8f4f7" font-size="34" font-family="SegoeUI, Segoe UI"><tspan x="-64.729" y="0">Payment</tspan></text>
    <text id="Wallet-2" data-name="Wallet" transform="translate(63 134)" fill="#c92815" font-size="26" font-family="SegoeUI, Segoe UI"><tspan x="-35.75" y="0">Wallet</tspan></text>
    <g id="Group_2198" data-name="Group 2198">
      <text id="Email_address_linked_with_Wallet" data-name="Email address linked with Wallet" transform="translate(168 229)" fill="#707070" font-size="19" font-family="SegoeUI, Segoe UI"><tspan x="-134.336" y="0">Email address linked with Wallet</tspan></text>
      <line id="Line_77" data-name="Line 77" x2="296" transform="translate(32.5 234.5)" fill="none" stroke="#707070" stroke-width="1"/>
    </g>
    <g id="Group_2197" data-name="Group 2197">
      <text id="Mobile_Number" data-name="Mobile Number" transform="translate(102 292)" fill="#707070" font-size="19" font-family="SegoeUI, Segoe UI"><tspan x="-66.375" y="0">Mobile Number</tspan></text>
      <line id="Line_78" data-name="Line 78" x2="296" transform="translate(32.5 297.5)" fill="none" stroke="#707070" stroke-width="1"/>
    </g>
  </g>
</svg>
